<svg xmlns="http://www.w3.org/2000/svg" width="32" height="32" viewBox="0 0 32 32" fill="none">
  <g clip-path="url(#clip0_26902_33328)">
    <path fill-rule="evenodd" clip-rule="evenodd" d="M15.9977 2.82764C10.8638 2.82764 6.41695 5.77058 4.25188 10.0489C4.75749 9.91921 5.27607 9.80253 5.78169 9.69881C7.8949 6.27619 11.6805 3.99444 15.9977 3.99444C21.3131 3.99444 25.8118 7.44299 27.3935 12.2269C27.8602 12.2917 28.314 12.4473 28.7418 12.7066C27.2898 7.02813 22.1299 2.82764 15.9977 2.82764ZM3.78516 20.9261C4.70563 23.2208 6.26137 25.1914 8.23198 26.6304V25.1525C6.89663 24.0116 5.80761 22.5855 5.06864 20.9649C4.83528 21.0168 4.58895 21.0557 4.36856 21.0557C4.14816 21.0687 3.95369 21.0168 3.78516 20.9261ZM25.9544 22.7152C23.8023 25.9044 20.1463 28.0047 15.9977 28.0047C14.5197 28.0047 13.1066 27.7324 11.7972 27.2527L10.6434 28.0436C12.2769 28.7696 14.0919 29.1715 15.9847 29.1715C21.8576 29.1715 26.823 25.334 28.5214 20.0315C28.3269 20.1093 28.1325 20.1871 27.925 20.2389C27.6917 20.3038 27.4453 20.3427 27.199 20.3427C27.2898 20.6149 27.3805 20.9001 27.4583 21.1724C27.6268 21.7817 27.2898 22.3392 26.6934 22.5077L25.9544 22.7152Z" fill="#FFB941"/>
    <path fill-rule="evenodd" clip-rule="evenodd" d="M15.9975 5.05762C12.3934 5.05762 9.19118 6.80782 7.19466 9.50443C7.70027 9.4785 8.21885 9.5174 8.67261 9.66001C9.80051 10.023 10.4358 10.9435 10.708 12.0584C10.8117 12.4863 10.7729 12.9141 10.6691 13.329C10.6432 13.4456 10.6043 13.5623 10.5525 13.666C10.6302 13.5623 10.721 13.4586 10.8117 13.3549C11.6026 12.4863 12.6397 12.0973 13.8065 12.0973C14.8696 12.0973 15.7901 12.4992 16.5291 13.2641C16.6198 13.3549 16.7106 13.4586 16.7884 13.5623C17.307 12.9789 17.9422 12.5381 18.733 12.3048C19.861 11.9677 20.95 12.1751 21.9482 12.7715C22.2205 12.94 22.4798 13.1345 22.7002 13.3549C22.7261 13.3419 22.7391 13.3419 22.765 13.329C23.1021 13.1863 23.4651 13.0178 23.8151 12.9141C24.1133 12.8363 24.3856 12.8622 24.6189 12.9919C24.956 12.7067 25.332 12.4603 25.7598 12.3437C25.9283 12.2918 26.0969 12.2659 26.2654 12.2399C24.7356 8.05242 20.7166 5.05762 15.9975 5.05762ZM9.24304 24.6081V27.0843C9.23008 27.2139 9.2949 27.3306 9.39862 27.3954C9.5153 27.4602 9.64494 27.4602 9.74866 27.3825L11.6933 26.0601C13.0157 26.6175 14.4677 26.9417 15.9846 26.9417C19.3683 26.9417 22.389 25.3989 24.3985 22.9875C23.9837 22.9097 23.6595 22.6115 23.5429 22.1837L22.6094 18.7222C22.389 18.8778 22.1427 18.9685 21.8704 18.9685C21.8704 19.0074 21.8704 19.0333 21.8704 19.0593C21.8575 19.4352 21.8316 19.9538 21.6371 20.2779C21.4815 20.5372 21.2352 20.6669 20.9629 20.7446C19.848 21.0558 18.7201 20.6928 17.7607 20.1094C17.4755 19.9408 17.2162 19.7464 16.9828 19.5389C16.192 20.3038 15.103 20.5372 14.0269 20.5372C12.8731 20.5372 11.81 20.2001 10.9673 19.4093C10.8766 19.3185 10.7858 19.2278 10.6951 19.1241C9.99498 19.7075 9.06154 20.0446 8.20588 20.252C8.05031 20.2909 7.89474 20.3298 7.75213 20.3557C7.60952 20.3946 7.45394 20.4205 7.31133 20.4594C6.9224 20.5502 6.53347 20.6409 6.14453 20.7317C6.85758 22.2615 7.93363 23.5839 9.24304 24.6081Z" fill="#FFDA45"/>
    <path fill-rule="evenodd" clip-rule="evenodd" d="M22.3125 20.7186C22.0532 21.1465 21.6513 21.3928 21.1716 21.5354C19.8363 21.9114 18.488 21.5095 17.3341 20.8094C17.2174 20.7316 17.1008 20.6538 16.9841 20.576C16.1155 21.1465 15.0653 21.3539 14.0152 21.3539C12.7447 21.3539 11.5649 21.0039 10.5926 20.1871C9.91844 20.602 9.14057 20.8613 8.37567 21.0557C8.22009 21.0946 8.06452 21.1335 7.92191 21.1594C7.7793 21.1983 7.62373 21.2243 7.48112 21.2632C7.15701 21.3409 6.83289 21.4187 6.52175 21.4965C6.37914 21.2502 6.24949 21.0039 6.13281 20.7575C6.52175 20.6668 6.91068 20.576 7.29962 20.4853C7.44223 20.4464 7.5978 20.4205 7.74041 20.3816C7.88302 20.3556 8.03859 20.3167 8.19416 20.2779C9.04982 20.0704 9.98326 19.7333 10.6833 19.1499C10.7741 19.2537 10.8649 19.3444 10.9556 19.4352C11.7983 20.239 12.8743 20.5631 14.0152 20.5631C15.0913 20.5631 16.1803 20.3297 16.9711 19.5648C17.2045 19.7722 17.4638 19.9667 17.749 20.1352C18.7084 20.7186 19.8363 21.0817 20.9512 20.7705C21.2235 20.6927 21.4698 20.5631 21.6254 20.3038C21.8198 19.9797 21.8458 19.4611 21.8587 19.0851C21.8587 19.0592 21.8587 19.0203 21.8587 18.9944C22.131 18.9944 22.3773 18.9036 22.5977 18.748L23.5311 22.2096C23.6478 22.6374 23.9719 22.9356 24.3868 23.0134C24.1923 23.2467 23.9979 23.4542 23.7904 23.6745C23.2848 23.4412 22.8959 23.0004 22.7403 22.417L22.3125 20.7186Z" fill="#FFB941"/>
    <path fill-rule="evenodd" clip-rule="evenodd" d="M10.7864 17.5556C10.7475 17.6593 10.6957 17.75 10.6438 17.8408C10.2419 18.5538 9.36034 19.0724 7.99907 19.3965C7.89536 19.4224 7.73978 19.4613 7.54531 19.5002C7.35085 19.5521 7.19527 19.578 7.10452 19.6039C5.57471 19.9799 4.65423 20.1614 4.35605 20.1744C4.22641 20.1744 4.14862 20.1225 4.12269 20.0188C4.01898 19.578 3.87637 18.9039 3.70783 17.9834C3.53929 17.0759 3.40965 16.3888 3.29297 15.948C3.17629 15.4683 2.92996 14.5737 2.56695 13.2513C2.4762 12.9143 2.32063 12.4087 2.12616 11.7345L2.10023 11.6438C2.0743 11.566 2.12616 11.5011 2.25581 11.4493C2.38545 11.3974 2.86514 11.2807 3.69487 11.0733C5.01724 10.7492 5.79511 10.5677 6.01551 10.5288C7.0397 10.3214 7.8435 10.3084 8.40097 10.4769C9.13995 10.7103 9.61963 11.3067 9.85299 12.2401C9.91782 12.4864 9.90485 12.7587 9.8141 13.0698C9.74928 13.2902 9.65853 13.5236 9.52888 13.757C9.4122 13.9644 9.36034 14.0292 9.36034 14.0422C9.37331 14.0681 9.42516 14.107 9.55481 14.1329C9.89189 14.2237 10.1771 14.4311 10.4364 14.7552C10.566 14.9108 10.6568 15.0793 10.7475 15.2608C10.8772 14.7423 11.1235 14.2885 11.4736 13.9125C12.057 13.2643 12.8478 12.9402 13.8201 12.9402C14.6369 12.9402 15.337 13.2384 15.9074 13.8348C16.3352 14.2755 16.5945 14.7812 16.7112 15.3386C16.789 15.1312 16.8927 14.9238 17.0224 14.7163C17.528 13.8736 18.1892 13.3421 19.0059 13.0958C19.8486 12.8494 20.6783 12.9661 21.521 13.4717C21.9359 13.7181 22.247 14.0292 22.4804 14.4052C22.636 14.3144 22.8564 14.2107 23.1416 14.0811C23.5565 13.8866 23.8676 13.7699 24.0621 13.7181C24.2176 13.6792 24.3473 13.757 24.4251 13.9644C24.5029 14.1718 24.5677 14.2626 24.6066 14.2626C24.6325 14.2366 24.7103 14.12 25.0474 13.7829C25.3844 13.4588 25.7086 13.2384 26.0327 13.1606C26.9272 12.9143 27.7181 13.018 28.4181 13.4588C29.0923 13.8866 29.546 14.5608 29.7924 15.4683C30.0387 16.3499 29.9739 17.1537 29.6109 17.8797C29.2349 18.6316 28.6126 19.1243 27.7569 19.3576C27.4328 19.4484 27.0828 19.4613 26.6679 19.3965C26.266 19.3447 26.0716 19.3058 26.1105 19.2928C26.0586 19.3058 26.0456 19.3706 26.0845 19.5002C26.1364 19.7077 26.2401 20.0188 26.3697 20.4337C26.4994 20.8485 26.6031 21.1597 26.655 21.3671C26.6939 21.4968 26.642 21.5875 26.4994 21.6134L25.2418 21.9635C24.9566 22.0413 24.7751 22.0802 24.6844 22.0802C24.5547 22.0931 24.4769 22.0283 24.438 21.8987L23.1546 17.1407C23.0768 16.8425 22.986 16.5703 22.9082 16.311C22.8693 16.7518 22.7138 17.1796 22.4804 17.5815C22.26 17.9445 22.0137 18.0871 21.7414 17.9963C21.7025 17.9834 21.3006 17.7889 20.5357 17.4259C20.082 17.2185 19.4078 16.8814 18.5133 16.4276C18.4225 16.6999 18.4614 16.9722 18.6429 17.2574C18.7985 17.4907 19.0059 17.6852 19.2652 17.8537C19.5893 18.0482 19.9653 18.1649 20.4061 18.1908C20.6006 18.1908 20.7821 18.1908 20.9765 18.1779C21.0284 18.2556 21.0543 18.5279 21.0284 18.9687C21.0024 19.4095 20.9765 19.6817 20.9117 19.7725C20.8987 19.7984 20.8469 19.8243 20.7561 19.8503C20.0301 20.0577 19.1874 19.8762 18.254 19.3058C17.3854 18.7742 16.8408 18.1001 16.6075 17.2703C16.5427 17.0629 16.5167 16.8425 16.5038 16.6351C16.4649 16.661 16.413 16.674 16.3741 16.6869C16.3223 16.6999 15.8815 16.7388 15.0517 16.8166C14.5461 16.8684 13.7942 16.9333 12.7959 17.011C12.8608 17.2963 13.0423 17.5037 13.3404 17.6593C13.5868 17.776 13.872 17.8408 14.1831 17.8408C14.5591 17.8408 14.948 17.7371 15.324 17.5426C15.4796 17.4389 15.6481 17.3481 15.8037 17.2444C15.8944 17.2833 16.05 17.5037 16.2574 17.8926C16.4649 18.2816 16.5816 18.5279 16.5816 18.6316C16.5816 18.6575 16.5427 18.7094 16.4908 18.7742C15.9722 19.3317 15.1684 19.6039 14.0665 19.6039C13.0552 19.6039 12.2255 19.3058 11.6032 18.7094C11.2013 18.4371 10.942 18.0223 10.7864 17.5556ZM27.4588 16.1165C27.368 15.7924 27.1865 15.5201 26.9272 15.3386C26.642 15.1442 26.3309 15.0793 26.0067 15.1701C25.6826 15.2608 25.4493 15.4553 25.3196 15.7794C25.2159 16.0646 25.2029 16.3758 25.2937 16.7129C25.3844 17.0629 25.553 17.3352 25.7993 17.5167C26.0586 17.7111 26.3697 17.763 26.7068 17.6722C27.4458 17.4648 27.6921 16.9462 27.4588 16.1165ZM20.7302 16.1424C20.8728 15.922 20.9117 15.6757 20.8469 15.4035C20.795 15.1312 20.6524 14.9367 20.432 14.7941C20.1987 14.6515 19.9523 14.6386 19.693 14.7293C19.4467 14.8201 19.2522 14.9886 19.1096 15.222C19.0448 15.3127 19.0707 15.4035 19.1745 15.4553C19.4467 15.6238 19.8875 15.8313 20.4968 16.1035C20.6265 16.1813 20.7043 16.1813 20.7302 16.1424ZM14.5072 15.6109C14.5072 15.3516 14.4165 15.1182 14.222 14.9108C14.0405 14.7163 13.8072 14.6126 13.5479 14.6126C13.2756 14.6126 13.0552 14.7293 12.8867 14.9497C12.7311 15.1571 12.6404 15.4035 12.6404 15.6757C12.6404 15.7924 12.7052 15.8442 12.8219 15.8442C13.133 15.8442 13.6257 15.8054 14.2868 15.7146C14.4424 15.7016 14.5072 15.6627 14.5072 15.6109ZM7.37678 12.9143C7.28603 12.5513 7.05267 12.3698 6.6767 12.3309C6.46926 12.3179 6.13219 12.3698 5.67843 12.4735C5.23764 12.5772 5.01724 12.6679 5.03021 12.7328C5.04317 12.8106 5.0691 12.9272 5.09503 13.0958C5.12096 13.2643 5.14689 13.381 5.15985 13.4588C5.26357 13.8736 5.35432 14.094 5.43211 14.1329C5.48396 14.1589 5.75622 14.12 6.2359 14.0033C7.10452 13.7959 7.49346 13.4329 7.37678 12.9143ZM8.40097 16.3499C8.31022 15.9739 8.08982 15.7665 7.75275 15.7016C7.53235 15.6627 7.19527 15.7016 6.75448 15.8183C6.22294 15.948 5.92476 16.0387 5.89883 16.0906C5.85993 16.1424 5.89883 16.4017 6.01551 16.8684C6.13219 17.3611 6.22294 17.6204 6.28776 17.6593C6.35258 17.6982 6.66373 17.6463 7.20824 17.5167C7.66199 17.413 7.96018 17.2963 8.12872 17.1796C8.40097 16.9851 8.49172 16.7129 8.40097 16.3499Z" fill="white"/>
  </g>
  <defs>
    <clipPath id="clip0_26902_33328">
      <path d="M0.441406 4.25632C0.441406 2.14994 2.14897 0.442383 4.25535 0.442383H27.7422C29.8486 0.442383 31.5562 2.14994 31.5562 4.25632V27.7432C31.5562 29.8496 29.8486 31.5571 27.7422 31.5571H4.25535C2.14897 31.5571 0.441406 29.8496 0.441406 27.7432V4.25632Z" fill="white"/>
    </clipPath>
  </defs>
</svg>