<?xml version="1.0" encoding="UTF-8"?>
<svg version="1.1" xmlns="http://www.w3.org/2000/svg" width="536" height="536">
<path d="M0 0 C176.88 0 353.76 0 536 0 C536 176.88 536 353.76 536 536 C359.12 536 182.24 536 0 536 C0 359.12 0 182.24 0 0 Z " fill="#1E1E1E" transform="translate(0,0)"/>
<path d="M0 0 C1.19882813 -0.01160156 2.39765625 -0.02320312 3.6328125 -0.03515625 C25.14743638 0.03484795 37.65172152 9.98795821 52.31201172 24.42333984 C56.96079129 29.10491504 61.44499059 33.94024901 65.91796875 38.7890625 C69.09280537 42.22735251 72.36482921 45.54875429 75.734375 48.796875 C77.46253643 50.59630082 78.95768724 52.23205099 80.25 54.375 C80.1953125 56.43359375 80.1953125 56.43359375 79.25 58.375 C70.15823998 66.35467779 59.7756777 68.8176835 47.953125 68.71875 C37.99285821 67.79416827 29.02837915 62.18402143 21.45703125 55.8828125 C17.65925066 52.80634951 14.58885638 51.37918531 9.62109375 51.72265625 C-2.63831382 55.09550808 -15.23537504 72.49174605 -21.453125 82.97265625 C-27.96346668 95.03247592 -28.87919575 110.17693974 -25.625 123.5 C-21.04405621 136.99182075 -10.40535434 148.08674473 -0.30859375 157.8203125 C1.3919831 159.51662726 2.940867 161.29806297 4.5 163.125 C7.4327966 166.53338524 10.55073674 169.71898464 13.75 172.875 C17.41844845 176.49425705 20.88953955 180.19977467 24.21875 184.1328125 C25.93969852 186.03247491 27.69997809 187.82603896 29.53125 189.6171875 C30.12115723 190.19484863 30.71106445 190.77250977 31.31884766 191.36767578 C32.50458395 192.52135648 33.69679958 193.66842243 34.89599609 194.80810547 C37.75124485 197.58602633 39.53215963 199.4443218 40.25 203.375 C24.41663923 215.53025705 8.785294 217.93878585 -10.75 216.375 C-25.37338796 213.90090476 -36.79778768 204.00923103 -46.8125 193.75 C-47.29245422 193.26289551 -47.77240845 192.77579102 -48.26690674 192.27392578 C-66.82069249 173.43201138 -80.29378011 152.79172799 -84.75 126.375 C-84.93433594 125.35664063 -85.11867187 124.33828125 -85.30859375 123.2890625 C-85.94927968 117.60793593 -85.97483265 111.9629881 -86 106.25 C-86.020625 105.10273438 -86.04125 103.95546875 -86.0625 102.7734375 C-86.09940036 94.58155784 -84.93248855 87.26016324 -82.75 79.375 C-82.45971924 78.29436279 -82.45971924 78.29436279 -82.16357422 77.19189453 C-78.17703469 63.05711796 -71.55222232 50.34048779 -61.75 39.375 C-60.87730469 38.39402344 -60.00460938 37.41304687 -59.10546875 36.40234375 C-56.5948276 33.61745609 -54.03615839 30.88187917 -51.45214844 28.16503906 C-50.28172939 26.93418529 -49.11596057 25.69889814 -47.95410156 24.45996094 C-33.95491325 9.5899744 -21.13820621 -0.20195738 0 0 Z " fill="#C23BA5" transform="translate(215.75,121.625)"/>
<path d="M0 0 C1.13550293 -0.00628418 2.27100586 -0.01256836 3.44091797 -0.01904297 C21.75362096 0.2538065 33.52949698 6.97851235 46.4375 19.5 C47.07526367 20.11198242 47.71302734 20.72396484 48.37011719 21.35449219 C61.7604052 34.25181056 72.64540669 46.50088083 80.4375 63.5 C80.91058594 64.42425781 81.38367188 65.34851563 81.87109375 66.30078125 C88.15684505 78.89093592 88.91785441 92.0847883 88.77368164 105.89038086 C88.74985194 108.32764305 88.75318017 110.76382057 88.75976562 113.20117188 C88.74114086 124.82871715 87.48397825 134.72609924 83.0625 145.5625 C82.74796875 146.34689453 82.4334375 147.13128906 82.109375 147.93945312 C81.49437683 149.46551262 80.87513153 150.98986971 80.25097656 152.51220703 C79.5989542 154.10547417 78.96451898 155.70593388 78.3359375 157.30859375 C68.21033522 182.00625844 42.56225385 205.22160503 18.6015625 215.3359375 C6.95432743 219.62096966 -8.16912539 218.8163545 -19.4453125 213.83203125 C-27.0912099 210.27536641 -33.54992081 206.47395449 -39.5625 200.5 C-41.08194124 199.18588866 -42.60290556 197.8735373 -44.125 196.5625 C-50.75952168 190.58223007 -56.7443338 183.98840328 -62.78222656 177.41552734 C-64.4007231 175.67406768 -66.04582668 173.96627167 -67.7109375 172.26953125 C-68.61070312 171.33496094 -69.51046875 170.40039062 -70.4375 169.4375 C-71.60925781 168.24447266 -71.60925781 168.24447266 -72.8046875 167.02734375 C-75.00095636 163.86959718 -75.27469875 161.29247772 -75.5625 157.5 C-67.20394553 151.09770296 -59.90037913 147.74127239 -49.25 147.875 C-48.32646729 147.884104 -47.40293457 147.89320801 -46.45141602 147.90258789 C-35.48497697 148.27150718 -28.90969024 152.57477938 -20.5625 159.375 C-15.51901227 163.24650233 -11.84577202 164.90086536 -5.4453125 164.3828125 C0.13431309 162.67414667 3.56899082 158.68924852 7.4375 154.5 C8.83121964 153.1644574 10.22692811 151.8309859 11.625 150.5 C24.19491178 137.62719878 30.73963053 124.49482059 30.75219727 106.47412109 C30.58767178 93.99160177 28.02170733 84.85884114 19.4375 75.5 C18.12458984 74.0459375 18.12458984 74.0459375 16.78515625 72.5625 C14.89484877 70.48080625 12.98985053 68.4138662 11.07421875 66.35546875 C8.91882697 64.02125928 6.81914219 61.66005349 4.75 59.25 C1.78717388 55.82754692 -1.38126781 52.66316363 -4.60546875 49.48828125 C-6.44980986 47.61448958 -8.16882066 45.68686529 -9.875 43.6875 C-13.22454982 39.78607927 -16.84427418 36.18812267 -20.50170898 32.58032227 C-23.85571597 29.25414455 -27.00730804 25.81773928 -30.0546875 22.2109375 C-31.47550062 20.5987195 -32.96840227 19.18730123 -34.5625 17.75 C-35.2225 17.0075 -35.8825 16.265 -36.5625 15.5 C-36.37379447 12.87384804 -35.86938751 11.79124519 -33.953125 9.97265625 C-31.5364833 8.38067148 -29.08757365 6.91447535 -26.5625 5.5 C-25.72460938 5.00628906 -24.88671875 4.51257813 -24.0234375 4.00390625 C-16.16014356 0.18056912 -8.62940233 0.03631213 0 0 Z " fill="#8140D4" transform="translate(316.5625,121.5)"/>
<path d="M0 0 C-1.0828125 1.051875 -1.0828125 1.051875 -2.1875 2.125 C-3.12738352 3.08099581 -4.06474888 4.03947183 -5 5 C-5.47695312 5.46921875 -5.95390625 5.9384375 -6.4453125 6.421875 C-8.96886763 9.10405359 -9.97499506 10.84441373 -10.5625 14.5 C-9.9051093 18.59043104 -8.59081908 20.79957644 -6 24 C-2.89046621 25.5547669 -0.43733239 25.28644437 3 25 C5.80933864 23.45199708 8.13851103 21.79400942 10.49609375 19.62109375 C12.94081469 17.39227025 14.5556244 16.07345553 17.859375 15.52734375 C22.02909132 16.15487568 23.69508632 18.2022938 26.25 21.3125 C27.19847402 22.41600512 28.14771097 23.51885489 29.09765625 24.62109375 C29.57477051 25.18425293 30.05188477 25.74741211 30.54345703 26.32763672 C31.95849232 27.95234201 33.42406969 29.49832421 34.93359375 31.03515625 C36.29677734 32.44087891 36.29677734 32.44087891 37.6875 33.875 C38.51636719 34.71804687 39.34523438 35.56109375 40.19921875 36.4296875 C42.39442251 39.56297183 42.52753314 41.24981393 42 45 C41.01 45.99 41.01 45.99 40 47 C35.13122828 46.86841158 33.25422709 44.33986465 30 41 C29.01 41 28.02 41 27 41 C27.36230835 44.26077519 27.6624083 45.67263835 30.0625 48 C32 50 32 50 32.25 52.75 C32.1675 53.4925 32.085 54.235 32 55 C30.35 55 28.7 55 27 55 C27 54.34 27 53.68 27 53 C25.02 53.495 25.02 53.495 23 54 C23.495 58.455 23.495 58.455 24 63 C22.02 63.495 22.02 63.495 20 64 C19.34 63.34 18.68 62.68 18 62 C16.68 61.67 15.36 61.34 14 61 C14.66 63.97 15.32 66.94 16 70 C13.6875 70.6875 13.6875 70.6875 11 71 C9.125 69.8125 9.125 69.8125 8 68 C8.25 66.25 8.25 66.25 9 64 C9.83415241 60.17680145 10.30613002 57.82835181 8.9375 54.125 C6.4342157 51.37946238 4.63364102 51.24224273 1 51 C0.01 52.65 -0.98 54.3 -2 56 C-0.865625 55.814375 0.26875 55.62875 1.4375 55.4375 C2.613125 55.293125 3.78875 55.14875 5 55 C6 56 6 56 6.375 58.875 C6 62 6 62 3.75 63.875 C1 65 1 65 -3 65 C-3 63.02 -3 61.04 -3 59 C-6.465 58.505 -6.465 58.505 -10 58 C-10.8125 55.8125 -10.8125 55.8125 -11 53 C-8.61105318 49.90842177 -6.96805899 48.27966149 -3.1875 47.1875 C-2.465625 47.125625 -1.74375 47.06375 -1 47 C-0.67 46.01 -0.34 45.02 0 44 C-0.804375 43.7525 -1.60875 43.505 -2.4375 43.25 C-5 42 -5 42 -5.8125 39.875 C-5.874375 39.25625 -5.93625 38.6375 -6 38 C-7.98 37.67 -9.96 37.34 -12 37 C-11.67 37.66 -11.34 38.32 -11 39 C-10.42757009 45.18224299 -10.42757009 45.18224299 -12.75 48.5 C-15 50 -15 50 -17.25 49.75 C-17.8275 49.5025 -18.405 49.255 -19 49 C-18.67 46.36 -18.34 43.72 -18 41 C-18.556875 41.144375 -19.11375 41.28875 -19.6875 41.4375 C-22.11384195 42.02769128 -24.54906345 42.523429 -27 43 C-26.39009109 39.44219804 -25.4216319 36.3171411 -24 33 C-22.35 33 -20.7 33 -19 33 C-18.67 31.68 -18.34 30.36 -18 29 C-20.97 29.33 -23.94 29.66 -27 30 C-27.41673602 20.60028758 -26.80797622 14.30594263 -20.8125 6.75 C-14.83615075 0.28501842 -8.50322499 -0.53145156 0 0 Z " fill="#A33DBA" transform="translate(261,195)"/>
<path d="M0 0 C0.80066895 0.01329346 1.60133789 0.02658691 2.42626953 0.0402832 C8.38756625 0.28119912 12.8229152 1.23949527 17.125 5.625 C21.36992733 10.30530449 22.27779424 12.85019831 22.3125 19.125 C22.32667969 20.2903125 22.34085937 21.455625 22.35546875 22.65625 C22.125 25.625 22.125 25.625 20.125 27.625 C19.72297363 27.1403125 19.32094727 26.655625 18.90673828 26.15625 C17.05016614 23.95272928 15.15152606 21.78981429 13.25 19.625 C12.61835938 18.861875 11.98671875 18.09875 11.3359375 17.3125 C8.64580802 14.29955499 6.56846583 12.00040381 2.58569336 10.96459961 C-1.82692308 10.75392531 -4.25158039 11.2267257 -8.01171875 13.62890625 C-8.85347656 14.47324219 -9.69523437 15.31757813 -10.5625 16.1875 C-13.13671875 18.75390625 -13.13671875 18.75390625 -15.875 20.625 C-19.70703125 20.40234375 -19.70703125 20.40234375 -22.875 19.625 C-23.375 16.5625 -23.375 16.5625 -22.875 12.625 C-20.53091947 9.8669152 -17.74824339 7.80635869 -14.875 5.625 C-13.9778125 4.74328125 -13.080625 3.8615625 -12.15625 2.953125 C-8.38697753 -0.19210362 -4.7512582 -0.14055518 0 0 Z " fill="#7D41C7" transform="translate(278.875,194.375)"/>
<path d="M0 0 C0.70382813 0.28875 1.40765625 0.5775 2.1328125 0.875 C13.2203989 5.04370089 23.62553479 5.13778351 35 2 C35 2.99 35 3.98 35 5 C33.2984375 5.2165625 33.2984375 5.2165625 31.5625 5.4375 C28.19222799 5.61171478 28.19222799 5.61171478 27 7 C24.9412232 7.27953219 22.88271568 7.44734351 20.8125 7.62109375 C20.214375 7.74613281 19.61625 7.87117187 19 8 C18.67 8.66 18.34 9.32 18 10 C18.66 9.67 19.32 9.34 20 9 C21.44848582 8.91657841 22.90070869 8.89267139 24.3515625 8.90234375 C25.20234375 8.90556641 26.053125 8.90878906 26.9296875 8.91210938 C27.81914062 8.92048828 28.70859375 8.92886719 29.625 8.9375 C30.5221875 8.94201172 31.419375 8.94652344 32.34375 8.95117188 C34.56256648 8.96297409 36.78125018 8.97943845 39 9 C39 9.33 39 9.66 39 10 C37.865625 9.99097656 36.73125 9.98195312 35.5625 9.97265625 C25.67040834 9.81003001 25.67040834 9.81003001 17.25 14.3125 C16.15217556 15.52874146 15.06695887 16.75659316 14 18 C13.030625 18.66 12.06125 19.32 11.0625 20 C8.21121009 22.76488719 8.22307882 25.13330048 8 29 C12.15102654 29.36852517 14.2921881 29.50889757 17.73828125 27.03125 C19.01251953 25.77828125 19.01251953 25.77828125 20.3125 24.5 C23.85826634 21.44414118 26.37949361 19.27353397 31.125 18.875 C36.66488715 19.38023771 39.66946456 22.79215728 43.28515625 26.73828125 C45 29 45 29 46 32 C45.360625 32.12375 44.72125 32.2475 44.0625 32.375 C43.381875 32.58125 42.70125 32.7875 42 33 C41.505 33.99 41.505 33.99 41 35 C40.56429687 34.4225 40.12859375 33.845 39.6796875 33.25 C39.08414063 32.5075 38.48859375 31.765 37.875 31 C37.29492188 30.2575 36.71484375 29.515 36.1171875 28.75 C34.07157303 26.76295374 34.07157303 26.76295374 31.0859375 26.50390625 C27.27804233 27.11606155 25.63790026 28.41723121 22.75 30.9375 C16.98723698 35.88823732 16.98723698 35.88823732 12.6875 36.375 C9 36 9 36 6.1875 33.6875 C2.1223176 28.69313305 2.1223176 28.69313305 1.4375 24.8125 C2.23124507 19.4326723 5.10053559 16.63226342 9 13 C9.99 12.34 10.98 11.68 12 11 C9.69 10.67 7.38 10.34 5 10 C5.99 9.67 6.98 9.34 8 9 C7.34 8.01 6.68 7.02 6 6 C5.67 5.01 5.34 4.02 5 3 C3.35 2.67 1.7 2.34 0 2 C0 1.34 0 0.68 0 0 Z " fill="#281B2A" transform="translate(248,185)"/>
<path d="M0 0 C1.32 0 2.64 0 4 0 C4.33 3.63 4.66 7.26 5 11 C5.66 10.67 6.32 10.34 7 10 C12.27725011 9.40031249 14.88707202 10.72835275 19 14 C21.50304378 17.75456567 21.45280074 19.54745934 21 24 C19.3562347 27.11141288 17.96963114 29.28893717 15.125 31.375 C10.02300725 32.8755861 5.20880632 31.74411519 0 31 C0 20.77 0 10.54 0 0 Z " fill="#D7D7D7" transform="translate(201,354)"/>
<path d="M0 0 C3.3721875 0.309375 3.3721875 0.309375 6.8125 0.625 C6.8125 7.225 6.8125 13.825 6.8125 20.625 C4.8325 20.625 2.8525 20.625 0.8125 20.625 C0.1525 20.955 -0.5075 21.285 -1.1875 21.625 C-4.95910651 22.04406739 -6.69720134 21.93700824 -9.9375 19.875 C-13.2341326 16.5783674 -14.05414269 14.84744197 -14.5625 10.1875 C-14.12329229 6.01502679 -13.11702192 4.55452192 -10.1875 1.625 C-6.35207543 -0.93194972 -4.52847467 -0.41545639 0 0 Z " fill="#D6D6D6" transform="translate(187.1875,364.375)"/>
<path d="M0 0 C3.70390021 2.02666238 5.65363011 3.48044516 8 7 C8.43259275 10.27534514 8.71290132 12.7935516 6.984375 15.71875 C4.88343628 18.30062651 2.76994999 20.15336667 0 22 C-3.14375467 22.28258469 -5.97782989 21.89447767 -9 21 C-11.93565908 18.5436322 -13.60586675 16.80175198 -14.4375 13 C-14.65789842 9.36342605 -14.12266152 7.19456655 -12.1875 4.125 C-8.09216033 0.14667004 -5.65464134 -0.57504827 0 0 Z " fill="#D1D1D1" transform="translate(396,364)"/>
<path d="M0 0 C3.70390021 2.02666238 5.65363011 3.48044516 8 7 C8.47824275 11.22447761 8.25508999 13.4992678 6.3125 17.3125 C3.8331358 20.19392326 2.68950764 21.22777747 -1 22 C-5.48980038 21.91982499 -7.41944237 21.49221191 -10.875 18.5625 C-14.19576118 14.55805269 -14.44193559 12.21484001 -14 7 C-10.24882221 1.17920688 -6.92075169 -0.70380526 0 0 Z " fill="#D9D9D9" transform="translate(140,364)"/>
<path d="M0 0 C4 0 4 0 5.5703125 1.51171875 C6.33988281 2.58873047 6.33988281 2.58873047 7.125 3.6875 C7.71667969 4.49445313 8.30835938 5.30140625 8.91796875 6.1328125 C9.60503906 7.07898438 10.29210937 8.02515625 11 9 C12.30482963 10.71452547 13.62027302 12.42044422 14.9387207 14.12451172 C16.96527998 16.74494298 18.98158251 19.3732923 21 22 C21.33 14.74 21.66 7.48 22 0 C23.32 0 24.64 0 26 0 C26 9.9 26 19.8 26 30 C21.89733148 28.97433287 21.3898609 28.75772309 18.875 25.75 C18.28332031 25.04359375 17.69164062 24.3371875 17.08203125 23.609375 C12.97667234 18.46419722 8.98442046 13.23978581 5 8 C4.67 15.26 4.34 22.52 4 30 C2.68 30 1.36 30 0 30 C0 20.1 0 10.2 0 0 Z " fill="#D3D3D3" transform="translate(274,355)"/>
<path d="M0 0 C0.33 0.99 0.66 1.98 1 3 C0.01 3.66 -0.98 4.32 -2 5 C-2 5.99 -2 6.98 -2 8 C-1.01 8.33 -0.02 8.66 1 9 C0.40574219 8.96777344 -0.18851562 8.93554688 -0.80078125 8.90234375 C-8.39854686 9.00868884 -11.94175406 11.91675287 -17.26171875 17.1640625 C-20 19 -20 19 -23.83203125 18.7734375 C-24.87746094 18.51820313 -25.92289062 18.26296875 -27 18 C-27.5 14.9375 -27.5 14.9375 -27 11 C-24.69131026 8.16847721 -21.95668864 6.12167356 -19 4 C-18.44957031 3.56171875 -17.89914062 3.1234375 -17.33203125 2.671875 C-12.04324308 -1.03680609 -6.21786749 -0.36755867 0 0 Z " fill="#A23EB3" transform="translate(283,196)"/>
<path d="M0 0 C3.93632446 1.18572295 5.1459119 3.17519899 7.23046875 6.671875 C7.23046875 8.321875 7.23046875 9.971875 7.23046875 11.671875 C1.62046875 11.671875 -3.98953125 11.671875 -9.76953125 11.671875 C-8.77953125 13.321875 -7.78953125 14.971875 -6.76953125 16.671875 C-2.19102343 17.1149564 1.75843334 16.78988385 6.23046875 15.671875 C4.48046875 19.546875 4.48046875 19.546875 2.23046875 20.671875 C-2.97624186 21.31695419 -6.5866296 21.5892273 -10.83203125 18.296875 C-13.86910415 14.18213107 -14.20628156 11.8255287 -13.76953125 6.671875 C-9.976899 0.78675599 -6.75918717 -0.92621814 0 0 Z " fill="#DBDBDB" transform="translate(319.76953125,364.328125)"/>
<path d="M0 0 C3.375 1.8125 3.375 1.8125 6 4 C6.61875 4.495 7.2375 4.99 7.875 5.5 C9 7 9 7 9 11 C8.01 11 7.02 11 6 11 C4.9935725 9.33720673 3.99414593 7.67016516 3 6 C-0.01002441 3.65886991 -3.27741542 3.58783393 -7.03125 3.671875 C-10.14316604 4.19052767 -11.85067869 5.78554774 -14 8 C-15.84862688 11.69725375 -15.47587094 15.96461442 -15 20 C-13.20353146 22.93423195 -12.0558929 24.47205355 -9 26 C-5.94079426 26.42071592 -3.0532254 26.48514117 0 26 C2.75569447 23.81840855 4.43588747 22.12822506 6 19 C7.32 19 8.64 19 10 19 C9.42070224 22.91025991 7.6938245 25.16056336 5 28 C0.44003389 31.00543221 -3.66148116 31.93076381 -9 31 C-14.44998998 28.43529883 -17.66171442 24.46263312 -20 19 C-20.92081787 14.79626624 -20.32485269 11.09855832 -18.4375 7.25 C-14.14450181 0.69041885 -7.58660688 -1.39571456 0 0 Z " fill="#DEDEDE" transform="translate(112,355)"/>
<path d="M0 0 C1.859375 0.12109375 1.859375 0.12109375 4 1 C5.8030208 4.87872066 6.78690963 8.88415767 8 13 C9.65 8.71 11.3 4.42 13 0 C14.32 0 15.64 0 17 0 C18.65 3.96 20.3 7.92 22 12 C22.5775 10.205625 23.155 8.41125 23.75 6.5625 C24.734375 3.50390625 24.734375 3.50390625 26 1 C28.140625 0.15234375 28.140625 0.15234375 30 0 C28.22089072 6.75052102 26.29561809 13.40620337 24 20 C22.68 20 21.36 20 20 20 C19.32739649 18.23141309 18.66211605 16.46003984 18 14.6875 C17.62875 13.70136719 17.2575 12.71523438 16.875 11.69921875 C16 9 16 9 16 6 C15.34 6 14.68 6 14 6 C13.8453125 7.5159375 13.8453125 7.5159375 13.6875 9.0625 C12.96295233 13.21218208 11.77730734 16.21356263 10 20 C8.68 20 7.36 20 6 20 C4.99422987 17.23113877 3.99519853 14.46015896 3 11.6875 C2.71382813 10.90181641 2.42765625 10.11613281 2.1328125 9.30664062 C1.86210937 8.54931641 1.59140625 7.79199219 1.3125 7.01171875 C1.06113281 6.31522217 0.80976563 5.61872559 0.55078125 4.90112305 C0 3 0 3 0 0 Z " fill="#E1E1E1" transform="translate(349,365)"/>
<path d="M0 0 C1.32 0 2.64 0 4 0 C4.33 6.27 4.66 12.54 5 19 C6.4025 17.659375 7.805 16.31875 9.25 14.9375 C11.640625 12.65234375 11.640625 12.65234375 14 11 C16.296875 11.25390625 16.296875 11.25390625 18 12 C17.55527344 12.38671875 17.11054688 12.7734375 16.65234375 13.171875 C16.08644531 13.69265625 15.52054687 14.2134375 14.9375 14.75 C14.36902344 15.26046875 13.80054688 15.7709375 13.21484375 16.296875 C11.79540897 17.91493799 11.79540897 17.91493799 12.09375 19.9375 C13.21551282 22.49047745 14.68033699 24.19673127 16.5625 26.25 C17.20316406 26.95640625 17.84382813 27.6628125 18.50390625 28.390625 C18.99761719 28.92171875 19.49132812 29.4528125 20 30 C18.265625 30.74609375 18.265625 30.74609375 16 31 C13.859375 29.34765625 13.859375 29.34765625 11.75 27.0625 C11.04359375 26.31097656 10.3371875 25.55945313 9.609375 24.78515625 C9.07828125 24.19605469 8.5471875 23.60695313 8 23 C6.35 23.66 4.7 24.32 3 25 C3 26.98 3 28.96 3 31 C2.01 31 1.02 31 0 31 C0 20.77 0 10.54 0 0 Z " fill="#C9C9C9" transform="translate(425,354)"/>
<path d="M0 0 C1.32 0.66 2.64 1.32 4 2 C4 2.99 4 3.98 4 5 C5.65 5 7.3 5 9 5 C9.33 5.66 9.66 6.32 10 7 C8.68 7 7.36 7 6 7 C6.33 7.66 6.66 8.32 7 9 C7.57242991 15.18224299 7.57242991 15.18224299 5.25 18.5 C3 20 3 20 0.75 19.75 C0.1725 19.5025 -0.405 19.255 -1 19 C-0.67 16.36 -0.34 13.72 0 11 C-0.556875 11.144375 -1.11375 11.28875 -1.6875 11.4375 C-4.11384195 12.02769128 -6.54906345 12.523429 -9 13 C-8.39009109 9.44219804 -7.4216319 6.3171411 -6 3 C-4.35 3 -2.7 3 -1 3 C-0.67 2.01 -0.34 1.02 0 0 Z " fill="#2F1B2C" transform="translate(243,225)"/>
<path d="M0 0 C1.32 0 2.64 0 4 0 C6.64 4.95 9.28 9.9 12 15 C15.465 7.575 15.465 7.575 19 0 C20.32 0.33 21.64 0.66 23 1 C20.10539639 7.53082463 17.18404213 14.04930876 14.25 20.5625 C13.83878906 21.47580078 13.42757812 22.38910156 13.00390625 23.33007812 C12.00279684 25.55347227 11.00149176 27.77677806 10 30 C8.68 30 7.36 30 6 30 C6.309375 29.113125 6.61875 28.22625 6.9375 27.3125 C9.08045611 20.75233823 9.08045611 20.75233823 7.12890625 14.35546875 C6.71962891 13.51435547 6.31035156 12.67324219 5.88867188 11.80664062 C5.45103516 10.94232422 5.01339844 10.07800781 4.5625 9.1875 C4.12873047 8.30384766 3.69496094 7.42019531 3.24804688 6.50976562 C2.17753189 4.33344395 1.09466141 2.16424939 0 0 Z " fill="#E6E6E6" transform="translate(236,365)"/>
<path d="M0 0 C0.99 0.66 1.98 1.32 3 2 C3.3984375 4.3125 3.3984375 4.3125 3.375 7 C3.38273438 7.886875 3.39046875 8.77375 3.3984375 9.6875 C3.26695312 10.450625 3.13546875 11.21375 3 12 C-0.78183906 14.52122604 -3.55855205 14.73098831 -8 14 C-10 12.4375 -10 12.4375 -11 10 C-11.35773097 6.60155579 -11.58904125 4.14126742 -10 1.0625 C-6.83245911 -0.6202561 -3.5086342 -0.54468716 0 0 Z " fill="#262626" transform="translate(188,368)"/>
<path d="M0 0 C2 1.0625 2 1.0625 3 3 C3.3898913 6.57400356 3.37020241 9.09763163 2 12.4375 C-0.71513795 14.55870152 -2.74916293 14.51337798 -6.125 14.30859375 C-8 14 -8 14 -10 13 C-11.63102777 9.73794446 -11.51981506 6.56444611 -11 3 C-8.8890254 -1.2219492 -4.14509156 -0.61312813 0 0 Z " fill="#232323" transform="translate(397,368)"/>
<path d="M0 0 C3 2 3 2 3.6875 4.125 C3.8421875 5.053125 3.8421875 5.053125 4 6 C3.01 6 2.02 6 1 6 C-0.71711243 8.44496043 -0.71711243 8.44496043 -2 11 C-0.865625 10.814375 0.26875 10.62875 1.4375 10.4375 C3.2009375 10.2209375 3.2009375 10.2209375 5 10 C6 11 6 11 6.375 13.875 C6 17 6 17 3.75 18.875 C1 20 1 20 -3 20 C-3 18.02 -3 16.04 -3 14 C-5.31 13.67 -7.62 13.34 -10 13 C-10.8125 10.8125 -10.8125 10.8125 -11 8 C-7.99245324 4.10788067 -5.81510311 2.66876432 -1 2 C-0.67 1.34 -0.34 0.68 0 0 Z " fill="#2D1A2F" transform="translate(261,240)"/>
<path d="M0 0 C2 1.0625 2 1.0625 3 3 C3.3898913 6.57400356 3.37020241 9.09763163 2 12.4375 C-0.71070476 14.5552381 -2.74871362 14.57130492 -6.125 14.37890625 C-8 14 -8 14 -10 12.4375 C-11.37020241 9.09763163 -11.3898913 6.57400356 -11 3 C-8.82986072 -1.20464485 -4.15736573 -0.61494368 0 0 Z " fill="#232222" transform="translate(141,368)"/>
<path d="M0 0 C1.32 0 2.64 0 4 0 C4 2.64 4 5.28 4 8 C6.31 8 8.62 8 11 8 C11 8.99 11 9.98 11 11 C8.69 11 6.38 11 4 11 C4.33 15.29 4.66 19.58 5 24 C7.31 24.33 9.62 24.66 12 25 C12 25.99 12 26.98 12 28 C8.75 28.75 8.75 28.75 5 29 C2.58718117 27.15863826 1.34849087 25.69698174 0 23 C-0.07065617 20.95944995 -0.08421976 18.91665743 -0.0625 16.875 C-0.05347656 15.77929688 -0.04445313 14.68359375 -0.03515625 13.5546875 C-0.02355469 12.71164062 -0.01195312 11.86859375 0 11 C-1.65 11 -3.3 11 -5 11 C-5 10.01 -5 9.02 -5 8 C-3.35 8 -1.7 8 0 8 C0 5.36 0 2.72 0 0 Z " fill="#D6D6D6" transform="translate(334,357)"/>
<path d="M0 0 C2.45426089 0.08462969 3.85064617 0.20657309 6.0625 1.3125 C7.69352777 4.57455554 7.58231506 7.74805389 7.0625 11.3125 C6.0625 13.3125 6.0625 13.3125 4.0625 14.3125 C1.25985643 14.66211402 -1.0750515 14.53967845 -3.9375 14.3125 C-5.9375 12.3125 -5.9375 12.3125 -6.203125 10 C-6.19796875 9.113125 -6.1928125 8.22625 -6.1875 7.3125 C-6.19265625 6.425625 -6.1978125 5.53875 -6.203125 4.625 C-5.71298094 0.35786345 -4.09758064 0.32520481 0 0 Z " fill="#212121" transform="translate(210.9375,367.6875)"/>
<path d="M0 0 C0.66773438 0.66902344 1.33546875 1.33804688 2.0234375 2.02734375 C4.23013938 4.23482318 6.44584749 6.43299923 8.6640625 8.62890625 C9.98442039 9.94005846 11.304732 11.25125727 12.625 12.5625 C13.29273438 13.22185547 13.96046875 13.88121094 14.6484375 14.56054688 C15.29296875 15.20185547 15.9375 15.84316406 16.6015625 16.50390625 C17.18244629 17.07955322 17.76333008 17.6552002 18.36181641 18.24829102 C23.02046131 23.22977793 23.02046131 23.22977793 22.9453125 26.05859375 C20.16343396 31.77179059 11.70980143 34.9137264 6 37 C-3.05990832 39.22224166 -12.56629818 39.04817687 -21 35 C-21 34.67 -21 34.34 -21 34 C-19.88625 34.144375 -18.7725 34.28875 -17.625 34.4375 C-16.89023437 34.52515625 -16.15546875 34.6128125 -15.3984375 34.703125 C-13.81729017 34.89883705 -12.23874989 35.1171154 -10.6640625 35.359375 C-3.81954638 36.28969758 2.2646476 35.40030522 9 34 C9.33 33.01 9.66 32.02 10 31 C10.7425 30.87625 11.485 30.7525 12.25 30.625 C14.80141485 30.04513299 16.7267573 29.26291261 19 28 C19 26.68 19 25.36 19 24 C17.68 24 16.36 24 15 24 C15.268125 23.46375 15.53625 22.9275 15.8125 22.375 C16.27268876 19.74405803 16.27268876 19.74405803 14 17.125 C11.43774239 14.29152849 8.57712908 11.88802032 5.6484375 9.4453125 C3.42698567 7.49759407 1.65263966 5.44590669 0 3 C0 2.01 0 1.02 0 0 Z " fill="#8A41A6" transform="translate(273,152)"/>
<path d="M0 0 C4.43962458 3.57100238 8.49202535 7.38615517 12.4375 11.5 C13.30246094 12.3971875 14.16742188 13.294375 15.05859375 14.21875 C17.33647771 17.48203648 17.57490677 19.10158454 17 23 C16.34 23.66 15.68 24.32 15 25 C10.13122828 24.86841158 8.25422709 22.33986465 5 19 C4.01 19 3.02 19 2 19 C1.67 20.32 1.34 21.64 1 23 C-0.32 22.67 -1.64 22.34 -3 22 C-1.84571211 19.69142423 -1.05938216 18.57885966 1 17 C4.6875 16.3125 4.6875 16.3125 8 16 C8.66 14.35 9.32 12.7 10 11 C8.35 11 6.7 11 5 11 C5 10.01 5 9.02 5 8 C4.01 7.67 3.02 7.34 2 7 C0.8125 3.4375 0.8125 3.4375 0 0 Z " fill="#7441C2" transform="translate(286,217)"/>
<path d="M0 0 C0.91483154 0.00257813 1.82966309 0.00515625 2.7722168 0.0078125 C10.59615753 0.22935582 16.19719542 2.11000551 22.6875 6.625 C22.3575 7.615 22.0275 8.605 21.6875 9.625 C18.92135319 9.22983617 17.89402611 8.87124267 16.0625 6.6875 C12.49769483 3.59174815 8.32782834 3.03729398 3.6875 2.625 C2.6975 3.12 2.6975 3.12 1.6875 3.625 C0.22794555 3.56685042 -1.23047587 3.47873635 -2.6875 3.375 C-9.10370038 3.29069956 -14.80077942 5.40150609 -20.3125 8.625 C-20.6425 9.615 -20.9725 10.605 -21.3125 11.625 C-22.3025 12.12 -22.3025 12.12 -23.3125 12.625 C-23.3125 13.945 -23.3125 15.265 -23.3125 16.625 C-22.3225 16.295 -21.3325 15.965 -20.3125 15.625 C-20.3125 17.275 -20.3125 18.925 -20.3125 20.625 C-22.75 19.0625 -22.75 19.0625 -25.3125 16.625 C-26.125 12.875 -26.125 12.875 -26.3125 9.625 C-17.94962959 3.21939713 -10.65318429 -0.12511309 0 0 Z " fill="#8C3D9D" transform="translate(267.3125,269.375)"/>
<path d="M0 0 C1.32 0.66 2.64 1.32 4 2 C4 2.66 4 3.32 4 4 C10.16149169 4.64870653 10.16149169 4.64870653 15.4375 2 C15.953125 1.34 16.46875 0.68 17 0 C17.66 0 18.32 0 19 0 C19.9375 2.0625 19.9375 2.0625 20 5 C18.08651469 7.90321909 15.8630435 10.03645675 13 12 C8.6557345 12.82391242 6.89841905 12.57898117 3.1875 10.1875 C1 8 1 8 -1 5 C-0.625 2.3125 -0.625 2.3125 0 0 Z " fill="#933D8D" transform="translate(151,386)"/>
<path d="M0 0 C2 1.1875 2 1.1875 4 3 C4.25 5.6875 4.25 5.6875 4 8 C2.35 8 0.7 8 -1 8 C-1 7.34 -1 6.68 -1 6 C-2.32 6.33 -3.64 6.66 -5 7 C-4.67 9.97 -4.34 12.94 -4 16 C-5.32 16.33 -6.64 16.66 -8 17 C-8.66 16.34 -9.32 15.68 -10 15 C-11.32 14.67 -12.64 14.34 -14 14 C-13.34 16.97 -12.68 19.94 -12 23 C-14.3125 23.6875 -14.3125 23.6875 -17 24 C-18.875 22.8125 -18.875 22.8125 -20 21 C-19.75 19.25 -19.75 19.25 -19 17 C-18.835 15.80375 -18.67 14.6075 -18.5 13.375 C-18 10 -18 10 -17 8 C-16.67 9.65 -16.34 11.3 -16 13 C-14.88625 12.79375 -13.7725 12.5875 -12.625 12.375 C-11.42875 12.25125 -10.2325 12.1275 -9 12 C-8.34 12.66 -7.68 13.32 -7 14 C-7.3403125 12.3603125 -7.3403125 12.3603125 -7.6875 10.6875 C-8 7 -8 7 -6.875 5 C-4.28103624 3.61655266 -2.74857743 4.18285536 0 5 C0 3.35 0 1.7 0 0 Z " fill="#7C3E9E" transform="translate(289,242)"/>
<path d="M0 0 C1.32 0 2.64 0 4 0 C4 10.23 4 20.46 4 31 C2.68 31 1.36 31 0 31 C0 20.77 0 10.54 0 0 Z " fill="#CDCDCD" transform="translate(153,354)"/>
<path d="M0 0 C0.99 0 1.98 0 3 0 C3 1.65 3 3.3 3 5 C-2.61 5 -8.22 5 -14 5 C-13.01 6.65 -12.02 8.3 -11 10 C-6.42149218 10.4430814 -2.47203541 10.11800885 2 9 C0.25 12.875 0.25 12.875 -2 14 C-7.02737124 14.62286015 -10.78680694 14.77644356 -15.125 12 C-17.64212891 7.97259374 -17.39656144 5.67942502 -17 1 C-16.34 1 -15.68 1 -15 1 C-15 1.66 -15 2.32 -15 3 C-10.05 3 -5.1 3 0 3 C0 2.01 0 1.02 0 0 Z " fill="#E7E7E7" transform="translate(324,371)"/>
<path d="M0 0 C1.98 0 3.96 0 6 0 C6.2475 0.78375 6.495 1.5675 6.75 2.375 C8.15389099 5.32317108 9.00675737 5.9024777 12 7 C11.875 8.875 11.875 8.875 11 11 C8.1875 12.0625 8.1875 12.0625 5 13 C2.69833325 14.51553153 2.69833325 14.51553153 1 16 C0.67 14.68 0.34 13.36 0 12 C-0.66 12.66 -1.32 13.32 -2 14 C-4.625 14.125 -4.625 14.125 -7 14 C-6.67 13.34 -6.34 12.68 -6 12 C-4.66923011 11.65657551 -3.33568021 11.32380126 -2 11 C0.21370051 9.21342243 0.21370051 9.21342243 0.1953125 6.8359375 C0.17210937 6.02382812 0.14890625 5.21171875 0.125 4.375 C0.09792969 3.14910156 0.09792969 3.14910156 0.0703125 1.8984375 C0.04710937 1.27195313 0.02390625 0.64546875 0 0 Z " fill="#2B1C2B" transform="translate(249,232)"/>
<path d="M0 0 C0.70125 0.020625 1.4025 0.04125 2.125 0.0625 C2.455 1.0525 2.785 2.0425 3.125 3.0625 C2.135 3.7225 1.145 4.3825 0.125 5.0625 C0.125 6.0525 0.125 7.0425 0.125 8.0625 C1.115 8.3925 2.105 8.7225 3.125 9.0625 C2.12919922 9.10117188 2.12919922 9.10117188 1.11328125 9.140625 C-4.46478468 9.49892413 -7.75953068 9.94703068 -11.875 14.0625 C-12.205 14.0625 -12.535 14.0625 -12.875 14.0625 C-13.42536338 8.4212754 -12.18689795 5.50741567 -8.875 1.0625 C-5.76817421 0.07095985 -3.23889822 0.07041083 0 0 Z " fill="#983FC1" transform="translate(280.875,195.9375)"/>
<path d="M0 0 C-1.0828125 1.051875 -1.0828125 1.051875 -2.1875 2.125 C-3.12738352 3.08099581 -4.06474888 4.03947183 -5 5 C-5.71542969 5.70382813 -5.71542969 5.70382813 -6.4453125 6.421875 C-8.96886763 9.10405359 -9.97499506 10.84441373 -10.5625 14.5 C-9.87017417 18.80780519 -9.02370378 20.82879847 -6 24 C-3.03953092 25.06495359 -0.11683104 25.61372607 3 26 C3 26.33 3 26.66 3 27 C-0.96 27.495 -0.96 27.495 -5 28 C-5 27.34 -5 26.68 -5 26 C-6.32 25.67 -7.64 25.34 -9 25 C-9 24.01 -9 23.02 -9 22 C-9.66 22 -10.32 22 -11 22 C-12.34112371 19.31775259 -12.37601209 16.92179791 -12.625 13.9375 C-12.72039062 12.85339844 -12.81578125 11.76929688 -12.9140625 10.65234375 C-12.95660156 9.33943359 -12.95660156 9.33943359 -13 8 C-12.67 7.67 -12.34 7.34 -12 7 C-12.33 6.01 -12.66 5.02 -13 4 C-14.65 4.33 -16.3 4.66 -18 5 C-13.37393237 -0.65408266 -6.68894708 -0.26755788 0 0 Z " fill="#A4409B" transform="translate(261,195)"/>
<path d="M0 0 C0 1.32 0 2.64 0 4 C-0.969375 4.309375 -1.93875 4.61875 -2.9375 4.9375 C-5.84065792 5.69523342 -5.84065792 5.69523342 -7 7 C-7.23527773 9.34987262 -7.41386417 11.70556039 -7.5625 14.0625 C-7.64628906 15.35285156 -7.73007812 16.64320313 -7.81640625 17.97265625 C-7.87699219 18.97167969 -7.93757813 19.97070312 -8 21 C-9.32 21 -10.64 21 -12 21 C-12 14.4 -12 7.8 -12 1 C-9.525 1.495 -9.525 1.495 -7 2 C-4 0 -4 0 0 0 Z " fill="#D3D3D3" transform="translate(421,364)"/>
<path d="M0 0 C3.48985605 -0.59014267 6.52164072 -0.72265082 10 0 C14.39530804 3.16931707 18.26607535 6.79822605 20 12 C19.360625 12.12375 18.72125 12.2475 18.0625 12.375 C17.381875 12.58125 16.70125 12.7875 16 13 C15.67 13.66 15.34 14.32 15 15 C14.55269531 14.43410156 14.10539062 13.86820313 13.64453125 13.28515625 C12.73767578 12.18494141 12.73767578 12.18494141 11.8125 11.0625 C11.22082031 10.33160156 10.62914062 9.60070312 10.01953125 8.84765625 C7.67494797 6.70261197 6.11608502 6.33905588 3 6 C3 5.67 3 5.34 3 5 C4.98 5 6.96 5 9 5 C9 4.01 9 3.02 9 2 C5.7 2 2.4 2 -1 2 C-0.67 1.34 -0.34 0.68 0 0 Z " fill="#2D1C39" transform="translate(274,205)"/>
<path d="M0 0 C0.99 0 1.98 0 3 0 C3 10.23 3 20.46 3 31 C2.01 31 1.02 31 0 31 C0 20.77 0 10.54 0 0 Z " fill="#ECECEC" transform="translate(164,354)"/>
<path d="M0 0 C0.99 0 1.98 0 3 0 C3 10.23 3 20.46 3 31 C2.01 31 1.02 31 0 31 C0 20.77 0 10.54 0 0 Z " fill="#F2F2F2" transform="translate(228,354)"/>
<path d="M0 0 C0.99 0 1.98 0 3 0 C3 6.6 3 13.2 3 20 C-0.96 20 -4.92 20 -9 20 C-9 19.34 -9 18.68 -9 18 C-5.04 16.515 -5.04 16.515 -1 15 C-0.67 11.7 -0.34 8.4 0 5 C-0.99 4.67 -1.98 4.34 -3 4 C-3 3.34 -3 2.68 -3 2 C-2.01 2 -1.02 2 0 2 C0 1.34 0 0.68 0 0 Z " fill="#EBEBEB" transform="translate(191,365)"/>
<path d="M0 0 C0.33 0.66 0.66 1.32 1 2 C1.928125 1.938125 2.85625 1.87625 3.8125 1.8125 C7 2 7 2 8.8125 3 C10.75402909 6.26994373 10.81944573 9.20836034 11 13 C10.34 13.66 9.68 14.32 9 15 C8.67 14.34 8.34 13.68 8 13 C7.01 13 6.02 13 5 13 C5 11.02 5 9.04 5 7 C2.36 7.33 -0.28 7.66 -3 8 C-2.5359375 7.13375 -2.5359375 7.13375 -2.0625 6.25 C-1.07416636 4.15705816 -0.4831387 2.25464725 0 0 Z " fill="#2B1B2F" transform="translate(261,244)"/>
<path d="M0 0 C1.32 0 2.64 0 4 0 C4.67260351 1.76858691 5.33788395 3.53996016 6 5.3125 C6.37125 6.29863281 6.7425 7.28476562 7.125 8.30078125 C8 11 8 11 8 14 C7.34 14 6.68 14 6 14 C5.67 14.66 5.34 15.32 5 16 C4.34 12.7 3.68 9.4 3 6 C2.34 6 1.68 6 1 6 C0.67 8.31 0.34 10.62 0 13 C-0.99 12.01 -1.98 11.02 -3 10 C-2.01 6.7 -1.02 3.4 0 0 Z " fill="#D6D6D6" transform="translate(362,365)"/>
<path d="M0 0 C3.4375 0.8125 3.4375 0.8125 5.4375 2.8125 C5.4375 4.1325 5.4375 5.4525 5.4375 6.8125 C1.1475 6.8125 -3.1425 6.8125 -7.5625 6.8125 C-6.23277599 1.49360397 -5.72473749 -0.30130197 0 0 Z " fill="#3A3A3A" transform="translate(317.5625,367.1875)"/>
<path d="M0 0 C3.6578218 2.03993908 5.66946174 3.50419262 8 7 C8.07905064 9.33199388 8.08798769 11.66832622 8 14 C6.68 13.67 5.36 13.34 4 13 C3.690625 11.865625 3.38125 10.73125 3.0625 9.5625 C2.37075469 6.21224901 2.37075469 6.21224901 1 5 C-1.32817964 4.63239269 -3.6618385 4.29758419 -6 4 C-6 3.34 -6 2.68 -6 2 C-6.66 1.67 -7.32 1.34 -8 1 C-5.13391871 -0.43304064 -3.18699217 -0.30644155 0 0 Z " fill="#CECECE" transform="translate(214,364)"/>
<path d="M0 0 C0.99 0.33 1.98 0.66 3 1 C2.21625 1.70125 1.4325 2.4025 0.625 3.125 C-2.1175446 6.12873932 -2.98778955 8.11985996 -4 12 C-4.33 12.99 -4.66 13.98 -5 15 C-5.03874921 16.66621616 -5.0450286 18.33394172 -5 20 C-3.741875 19.938125 -2.48375 19.87625 -1.1875 19.8125 C2.72231986 19.79173989 2.72231986 19.79173989 5 21.5 C5.33 21.995 5.66 22.49 6 23 C3.35541621 24.32229189 1.32238699 24.09677194 -1.625 24.0625 C-2.62789062 24.05347656 -3.63078125 24.04445312 -4.6640625 24.03515625 C-5.43492187 24.02355469 -6.20578125 24.01195312 -7 24 C-7.44727215 13.91152826 -6.86176669 7.80821727 0 0 Z " fill="#AB3E89" transform="translate(241,201)"/>
<path d="M0 0 C-1.46380173 4.52447806 -3.72123809 7.57220346 -7 11 C-8.5159375 11.7115625 -8.5159375 11.7115625 -10.0625 12.4375 C-13.1939444 14.10316192 -13.5297776 14.61744962 -15 17.625 C-17 21 -17 21 -20.25 21.9375 C-21.1575 21.958125 -22.065 21.97875 -23 22 C-18.63178152 16.78391303 -14.05759125 11.87481383 -9.25 7.0625 C-8.57839844 6.37865234 -7.90679687 5.69480469 -7.21484375 4.99023438 C-6.57160156 4.34505859 -5.92835938 3.69988281 -5.265625 3.03515625 C-4.68586914 2.4512915 -4.10611328 1.86742676 -3.50878906 1.26586914 C-2 0 -2 0 0 0 Z " fill="#B83C8E" transform="translate(183,133)"/>
<path d="M0 0 C4 4 4 4 4 7 C1.23723823 6.47731534 -1.3260876 5.89130413 -4 5 C-5.68437744 5.62056011 -7.35008418 6.29289322 -9 7 C-10.65919896 7.36871088 -12.3247643 7.71281674 -14 8 C-6.78551532 -0.96935933 -6.78551532 -0.96935933 0 0 Z " fill="#943FC3" transform="translate(282,211)"/>
<path d="M0 0 C1.86398437 0.02707031 1.86398437 0.02707031 3.765625 0.0546875 C6.80290966 0.10141496 9.83852939 0.16691409 12.875 0.25 C12.875 0.58 12.875 0.91 12.875 1.25 C4.295 1.25 -4.285 1.25 -13.125 1.25 C-13.125 1.91 -13.125 2.57 -13.125 3.25 C-15.3485486 4.24793249 -17.57421571 5.24026977 -19.8046875 6.22265625 C-21.52402367 6.98391115 -23.23358028 7.76733746 -24.9375 8.5625 C-27.43172032 9.34639781 -28.70117669 9.14771234 -31.125 8.25 C-20.65294951 1.8757084 -12.35466203 -0.34391993 0 0 Z " fill="#7E40A9" transform="translate(317.125,121.75)"/>
<path d="M0 0 C0.66 0 1.32 0 2 0 C2 9.24 2 18.48 2 28 C0.68 27.67 -0.64 27.34 -2 27 C-2 25.68 -2 24.36 -2 23 C-1.34 23 -0.68 23 0 23 C0 15.41 0 7.82 0 0 Z " fill="#FBFBFB" transform="translate(297,356)"/>
<path d="M0 0 C6.27761975 -0.50220958 9.9591692 -0.20069234 15 4 C15.61875 4.495 16.2375 4.99 16.875 5.5 C18 7 18 7 18 11 C17.01 11 16.02 11 15 11 C13.9935725 9.33720673 12.99414593 7.67016516 12 6 C9.11730901 4.19909977 6.61003939 3.67147406 3.25 3.375 C2.45078125 3.30023438 1.6515625 3.22546875 0.828125 3.1484375 C0.22484375 3.09945313 -0.3784375 3.05046875 -1 3 C-0.67 2.01 -0.34 1.02 0 0 Z " fill="#E8E8E8" transform="translate(103,355)"/>
<path d="M0 0 C1.32 0 2.64 0 4 0 C3.42070224 3.91025991 1.6938245 6.16056336 -1 9 C-5.8316984 12.18452849 -9.40268068 12.28951652 -15 12 C-15 11.67 -15 11.34 -15 11 C-12.69 11 -10.38 11 -8 11 C-8 10.34 -8 9.68 -8 9 C-9.65 9 -11.3 9 -13 9 C-13 8.67 -13 8.34 -13 8 C-12.39671875 7.92523438 -11.7934375 7.85046875 -11.171875 7.7734375 C-5.56247749 6.90662245 -5.56247749 6.90662245 -1.6875 2.875 C-1.130625 1.92625 -0.57375 0.9775 0 0 Z " fill="#D1D1D1" transform="translate(118,374)"/>
<path d="M0 0 C0.66 0 1.32 0 2 0 C2 6.6 2 13.2 2 20 C2.66 20.33 3.32 20.66 4 21 C3.34 23.97 2.68 26.94 2 30 C1.34 30 0.68 30 0 30 C0 20.1 0 10.2 0 0 Z " fill="#F9F9F9" transform="translate(426,355)"/>
<path d="M0 0 C0.33 0.66 0.66 1.32 1 2 C1.66 2.33 2.32 2.66 3 3 C1.58922306 4.7755291 0.17113464 6.54525031 -1.25 8.3125 C-2.03890625 9.29863281 -2.8278125 10.28476562 -3.640625 11.30078125 C-5.65198298 13.6018547 -7.4793158 15.30605396 -10 17 C-9.38768617 14.44869237 -8.68810077 11.95422022 -7.9375 9.4375 C-6.8684413 6.11145946 -6.8684413 6.11145946 -7 3 C-6.34 3 -5.68 3 -5 3 C-4.34 4.65 -3.68 6.3 -3 8 C-2.814375 6.2984375 -2.814375 6.2984375 -2.625 4.5625 C-2.41875 3.386875 -2.2125 2.21125 -2 1 C-1.34 0.67 -0.68 0.34 0 0 Z " fill="#6C41CE" transform="translate(380,294)"/>
<path d="M0 0 C0.99 0 1.98 0 3 0 C3 1.65 3 3.3 3 5 C-2.94 5 -8.88 5 -15 5 C-15.66 6.32 -16.32 7.64 -17 9 C-17 6.36 -17 3.72 -17 1 C-16.34 1 -15.68 1 -15 1 C-15 1.66 -15 2.32 -15 3 C-10.05 3 -5.1 3 0 3 C0 2.01 0 1.02 0 0 Z " fill="#E5E5E5" transform="translate(324,371)"/>
<path d="M0 0 C0.66 0.66 1.32 1.32 2 2 C1.67 2.99 1.34 3.98 1 5 C1.99 5.33 2.98 5.66 4 6 C5 7 6 8 7 9 C7.66 9 8.32 9 9 9 C9.66 10.65 10.32 12.3 11 14 C11.99 14 12.98 14 14 14 C14.66666667 16.66666667 15.33333333 19.33333333 16 22 C15.31421875 21.31164062 14.6284375 20.62328125 13.921875 19.9140625 C11.86241683 17.85315197 9.78676281 15.8098849 7.703125 13.7734375 C6.55202105 12.64068829 5.40098023 11.50787492 4.25 10.375 C3.66089844 9.80265625 3.07179687 9.2303125 2.46484375 8.640625 C1.62373047 7.80917969 1.62373047 7.80917969 0.765625 6.9609375 C0.25805664 6.46384277 -0.24951172 5.96674805 -0.77246094 5.45458984 C-2 4 -2 4 -3 1 C-2.01 0.67 -1.02 0.34 0 0 Z " fill="#9640A6" transform="translate(250,289)"/>
<path d="M0 0 C1.010625 0.33 2.02125 0.66 3.0625 1 C6.75479911 2.07001321 10.15248207 2.15704155 14 2 C13.67 2.99 13.34 3.98 13 5 C12.34 5 11.68 5 11 5 C11 5.66 11 6.32 11 7 C12.4540625 7.4021875 12.4540625 7.4021875 13.9375 7.8125 C14.948125 8.204375 15.95875 8.59625 17 9 C17.33 9.99 17.66 10.98 18 12 C10.81433744 10.63130237 4.80909129 5.27448722 0 0 Z " fill="#9E3EA5" transform="translate(234,174)"/>
<path d="M0 0 C3 3.625 3 3.625 3 7 C3.66 7 4.32 7 5 7 C5.13277344 7.60328125 5.26554688 8.2065625 5.40234375 8.828125 C5.57894531 9.62734375 5.75554687 10.4265625 5.9375 11.25 C6.19853516 12.43335938 6.19853516 12.43335938 6.46484375 13.640625 C6.947556 15.76878703 7.46163178 17.88532842 8 20 C8.66 20 9.32 20 10 20 C13.28571429 27.42857143 13.28571429 27.42857143 14 31 C10.29635223 27.77660546 8.3949138 24.1655359 6.4375 19.75 C6.13448975 19.08121826 5.83147949 18.41243652 5.51928711 17.72338867 C0 5.43457269 0 5.43457269 0 0 Z " fill="#BE3E83" transform="translate(134,258)"/>
<path d="M0 0 C5.41342681 1.14514798 7.9342948 2.34012809 11 7 C10.01 7.495 10.01 7.495 9 8 C8.34786708 10.02463255 8.34786708 10.02463255 8 12 C1.29540481 5.92560175 1.29540481 5.92560175 0.0625 2.0625 C0.041875 1.381875 0.02125 0.70125 0 0 Z " fill="#231C2A" transform="translate(289,216)"/>
<path d="M0 0 C0.875 2.125 0.875 2.125 1 5 C-0.6695188 7.39222996 -2.60181809 9.33840253 -5 11 C-5.99 11 -6.98 11 -8 11 C-8.375 8.3125 -8.375 8.3125 -8 5 C-5.87314885 2.45959445 -3.46631397 0 0 0 Z " fill="#6941BE" transform="translate(170,386)"/>
<path d="M0 0 C-1.87144695 0.82065069 -3.74734336 1.6311584 -5.625 2.4375 C-6.66914063 2.88996094 -7.71328125 3.34242188 -8.7890625 3.80859375 C-15.74332354 6.38894608 -22.55196898 6.12112032 -29.875 6.0625 C-31.47988281 6.05573242 -31.47988281 6.05573242 -33.1171875 6.04882812 C-35.74484986 6.03709749 -38.37239538 6.02068228 -41 6 C-41 5.67 -41 5.34 -41 5 C-40.38592285 4.98541748 -39.7718457 4.97083496 -39.13916016 4.95581055 C-36.30054015 4.88038055 -33.46297742 4.78404224 -30.625 4.6875 C-29.65949219 4.66494141 -28.69398438 4.64238281 -27.69921875 4.61914062 C-19.97029366 4.33384473 -13.21943703 2.83453784 -6.125 -0.25 C-3.60752122 -1.13852192 -2.50575701 -0.73390373 0 0 Z " fill="#9C3E95" transform="translate(246,332)"/>
<path d="M0 0 C2.79828356 0.38597015 3.8205884 0.80136573 5.75 2.9375 C7 5 7 5 7 7 C7.66 7 8.32 7 9 7 C9.33 7.66 9.66 8.32 10 9 C10.99 9.33 11.98 9.66 13 10 C15.64296752 12.33203016 16.87224426 13.61673278 18 17 C18.66 17.66 19.32 18.32 20 19 C17 19 17 19 15.20654297 17.57885742 C14.55830566 16.92763916 13.91006836 16.2764209 13.2421875 15.60546875 C12.53449219 14.89712891 11.82679688 14.18878906 11.09765625 13.45898438 C10.36417969 12.70939453 9.63070313 11.95980469 8.875 11.1875 C8.13378906 10.44951172 7.39257812 9.71152344 6.62890625 8.95117188 C1.13350511 3.40051533 1.13350511 3.40051533 0 0 Z " fill="#843FAB" transform="translate(291,147)"/>
<path d="M0 0 C1.1446875 0.3403125 1.1446875 0.3403125 2.3125 0.6875 C1.77354623 4.4601764 0.31714642 6.36962991 -2.6875 8.6875 C-4.9375 8.4375 -4.9375 8.4375 -6.6875 7.6875 C-6.32553085 5.00892828 -5.94762724 3.07769086 -4.4375 0.8125 C-2.6875 -0.3125 -2.6875 -0.3125 0 0 Z " fill="#993D93" transform="translate(256.6875,244.3125)"/>
<path d="M0 0 C4.27341914 0.47482435 6.10319428 3.03077413 9 6 C11.16620544 7.29519995 11.16620544 7.29519995 13 8 C9.80097361 8.08886184 7.07322544 7.91058531 4 7 C3.67 7.66 3.34 8.32 3 9 C0.9375 7.3125 0.9375 7.3125 -1 5 C-0.75 2.25 -0.75 2.25 0 0 Z " fill="#231B2F" transform="translate(288,235)"/>
<path d="M0 0 C0.33 0 0.66 0 1 0 C1.33 4.29 1.66 8.58 2 13 C4.31 13.33 6.62 13.66 9 14 C9 14.99 9 15.98 9 17 C2.58131488 18.33217993 2.58131488 18.33217993 0.25 17 C-1.69412666 13.88939735 -1.05670334 10.81176349 -0.6875 7.3125 C-0.62626953 6.61060547 -0.56503906 5.90871094 -0.50195312 5.18554688 C-0.34897376 3.4557033 -0.17637398 1.72761503 0 0 Z " fill="#D0D0D0" transform="translate(337,368)"/>
<path d="M0 0 C0.99 0.33 1.98 0.66 3 1 C3.71860272 8.06626005 3.71860272 8.06626005 1.734375 10.64453125 C-2.24963977 14 -2.24963977 14 -5 14 C-5 13.01 -5 12.02 -5 11 C-4.360625 10.4225 -3.72125 9.845 -3.0625 9.25 C-0.34947377 6.29033502 -0.30191697 3.92492059 0 0 Z " fill="#E8E8E8" transform="translate(400,371)"/>
<path d="M0 0 C1.32 0 2.64 0 4 0 C4.37010337 3.3309303 4.27461204 4.62731223 2.25 7.375 C0 9 0 9 -2.25 8.75 C-3.11625 8.37875 -3.11625 8.37875 -4 8 C-3.40339753 4.65902615 -2.36924875 2.45699871 0 0 Z " fill="#B03E98" transform="translate(246,236)"/>
<path d="M0 0 C0.33 0 0.66 0 1 0 C1.4551589 3.91436658 1.26291663 5.60138447 -0.9375 8.9375 C-4.80520615 11.54228169 -6.76239679 11.17034836 -11.20703125 10.39453125 C-11.79871094 10.26433594 -12.39039063 10.13414062 -13 10 C-13 9.67 -13 9.34 -13 9 C-11.741875 8.7525 -10.48375 8.505 -9.1875 8.25 C-6.1723125 7.51614484 -5.23457187 7.26584812 -3.125 4.875 C-2.75375 4.25625 -2.3825 3.6375 -2 3 C-1.34 3 -0.68 3 0 3 C0 2.01 0 1.02 0 0 Z " fill="#EBEBEB" transform="translate(220,374)"/>
<path d="M0 0 C2 1.1875 2 1.1875 4 3 C4.25 5.6875 4.25 5.6875 4 8 C2.35 8 0.7 8 -1 8 C-1 7.34 -1 6.68 -1 6 C-2.32 6.33 -3.64 6.66 -5 7 C-5 8.98 -5 10.96 -5 13 C-5.99 12.34 -6.98 11.68 -8 11 C-7.67 9.02 -7.34 7.04 -7 5 C-3.86650268 3.95550089 -3.01031744 4.06576355 0 5 C0 3.35 0 1.7 0 0 Z " fill="#7D43B9" transform="translate(289,242)"/>
<path d="M0 0 C-0.36512747 2.7019433 -0.69869237 4.58390852 -2.3125 6.8125 C-4 8 -4 8 -8 8 C-7.63487253 5.2980567 -7.30130763 3.41609148 -5.6875 1.1875 C-4 0 -4 0 0 0 Z " fill="#9D41A4" transform="translate(266,252)"/>
<path d="M0 0 C-0.36512747 2.7019433 -0.69869237 4.58390852 -2.3125 6.8125 C-4 8 -4 8 -8 8 C-7.63487253 5.2980567 -7.30130763 3.41609148 -5.6875 1.1875 C-4 0 -4 0 0 0 Z " fill="#B74191" transform="translate(242,230)"/>
<path d="M0 0 C0.33 0 0.66 0 1 0 C1.185625 1.11375 1.37125 2.2275 1.5625 3.375 C2.036875 4.57125 2.51125 5.7675 3 7 C6.51400668 8.54086322 6.51400668 8.54086322 10 9 C8.68 9.33 7.36 9.66 6 10 C6 10.66 6 11.32 6 12 C7.32 12.33 8.64 12.66 10 13 C5.5428126 12.73781251 3.48477302 12.42288711 0.0625 9.4375 C-0.618125 8.633125 -1.29875 7.82875 -2 7 C-1.34 6.67 -0.68 6.34 0 6 C0 4.02 0 2.04 0 0 Z " fill="#CECECE" transform="translate(129,373)"/>
<path d="M0 0 C0.8197996 2.35361821 1.1148421 3.63151889 0.36328125 6.04296875 C0.01652344 6.75066406 -0.33023438 7.45835937 -0.6875 8.1875 C-1.24244141 9.35152344 -1.24244141 9.35152344 -1.80859375 10.5390625 C-2.39833984 11.75722656 -2.39833984 11.75722656 -3 13 C-3.75589903 14.68486584 -4.50618903 16.37226289 -5.25 18.0625 C-5.83333333 19.375 -6.41666667 20.6875 -7 22 C-8.25082365 18.48155411 -7.76461452 16.6400666 -6.3125 13.25 C-5.75755859 11.94675781 -5.75755859 11.94675781 -5.19140625 10.6171875 C-3.5555131 7.02358616 -1.81757524 3.50532368 0 0 Z " fill="#B63C7F" transform="translate(144,174)"/>
<path d="M0 0 C1.8125 1.625 1.8125 1.625 3 4 C3.1875 7.75 3.1875 7.75 3 11 C2.67 11 2.34 11 2 11 C1.938125 10.071875 1.87625 9.14375 1.8125 8.1875 C1.29091363 4.91861448 1.29091363 4.91861448 -1.0625 3.125 C-4.98666552 1.6221281 -7.80507034 1.72492265 -12 2 C-12.99 2.495 -12.99 2.495 -14 3 C-14 2.01 -14 1.02 -14 0 C-3.78378378 -1.44674086 -3.78378378 -1.44674086 0 0 Z " fill="#C8C8C8" transform="translate(401,367)"/>
<path d="M0 0 C1.65 0 3.3 0 5 0 C6.60725635 3.21451269 6.05748185 6.43612536 6 10 C4.125 9.5 4.125 9.5 2 8 C1.01505446 5.34822355 0.54087618 2.79452693 0 0 Z " fill="#1D1E1E" transform="translate(249,232)"/>
<path d="M0 0 C0.66 0.66 1.32 1.32 2 2 C-0.40545638 3.20272819 -1.94996953 3.10071472 -4.625 3.0625 C-5.85089844 3.04896484 -5.85089844 3.04896484 -7.1015625 3.03515625 C-8.04128906 3.01775391 -8.04128906 3.01775391 -9 3 C-9 4.32 -9 5.64 -9 7 C-10.32 7 -11.64 7 -13 7 C-10.34990332 0.59559969 -6.77523651 -0.62733671 0 0 Z " fill="#D7D7D7" transform="translate(396,364)"/>
<path d="M0 0 C2.125 0.375 2.125 0.375 4 1 C3 4 3 4 1 5 C1 6.32 1 7.64 1 9 C1.99 8.67 2.98 8.34 4 8 C4 9.65 4 11.3 4 13 C0.39825609 10.6911898 -0.84523353 9.59843036 -1.9375 5.375 C-1.958125 4.26125 -1.97875 3.1475 -2 2 C-1.34 1.34 -0.68 0.68 0 0 Z " fill="#9F3FA6" transform="translate(243,277)"/>
<path d="M0 0 C7.51869512 -0.59672183 11.74031045 0.85647028 18 5 C17.67 5.99 17.34 6.98 17 8 C14.225878 7.60369686 13.18886238 7.21684199 11.3125 5.0625 C7.96404152 2.07603703 4.34221645 1.70514626 0 1 C0 0.67 0 0.34 0 0 Z " fill="#8A41AE" transform="translate(272,271)"/>
<path d="M0 0 C4.33024115 1.2920365 7.88177765 2.9440086 11.6875 5.375 C12.61949219 5.96023437 13.55148438 6.54546875 14.51171875 7.1484375 C16.89340073 8.92067809 18.37759255 10.53654521 20 13 C17.61467247 11.8990796 15.54373018 10.68495655 13.375 9.1875 C9.17527516 6.31913123 4.57131793 4.20435094 0 2 C0 1.34 0 0.68 0 0 Z " fill="#923F9A" transform="translate(237,124)"/>
<path d="M0 0 C-0.875 7.625 -0.875 7.625 -2 11 C-3.32 11 -4.64 11 -6 11 C-6 9.35 -6 7.7 -6 6 C-5.01 6 -4.02 6 -3 6 C-3 4.35 -3 2.7 -3 1 C-1 0 -1 0 0 0 Z " fill="#E6E6E6" transform="translate(361,374)"/>
<path d="M0 0 C0.99 0.33 1.98 0.66 3 1 C3.33 3.64 3.66 6.28 4 9 C1.13275314 8.42655063 0.1385485 8.1385485 -2 6 C-1.64644564 3.73725212 -1.02455574 2.04911148 0 0 Z " fill="#903FB0" transform="translate(271,257)"/>
<path d="M0 0 C1.32 0.33 2.64 0.66 4 1 C2.68 3.97 1.36 6.94 0 10 C-0.99 10 -1.98 10 -3 10 C-3.33 9.34 -3.66 8.68 -4 8 C-3.22265625 6.0546875 -3.22265625 6.0546875 -2.0625 3.875 C-1.49208984 2.78832031 -1.49208984 2.78832031 -0.91015625 1.6796875 C-0.60980469 1.12539063 -0.30945313 0.57109375 0 0 Z " fill="#D2D2D2" transform="translate(255,365)"/>
<path d="M0 0 C0.33 0.66 0.66 1.32 1 2 C0.67 2.66 0.34 3.32 0 4 C0.66 4.33 1.32 4.66 2 5 C1.01 5 0.02 5 -1 5 C-2 4 -3 3 -4 2 C-4.99 2 -5.98 2 -7 2 C-7.33 3.32 -7.66 4.64 -8 6 C-9.32 5.67 -10.64 5.34 -12 5 C-9.11932077 -0.76135846 -6.01653791 -0.29589531 0 0 Z " fill="#793FBB" transform="translate(295,234)"/>
<path d="M0 0 C2.75457718 0.37994168 3.82020574 0.8073633 5.75 2.875 C7 5 7 5 7 8 C5.68 8 4.36 8 3 8 C3 7.01 3 6.02 3 5 C1.68 5 0.36 5 -1 5 C-0.67 3.35 -0.34 1.7 0 0 Z " fill="#8F3FBA" transform="translate(289,171)"/>
<path d="M0 0 C0 1.32 0 2.64 0 4 C-1.423125 4.4640625 -1.423125 4.4640625 -2.875 4.9375 C-5.86080408 5.87394742 -5.86080408 5.87394742 -8 7 C-8.33 5.02 -8.66 3.04 -9 1 C-8.01 1 -7.02 1 -6 1 C-4 0 -4 0 0 0 Z " fill="#C1C1C1" transform="translate(421,364)"/>
<path d="M0 0 C4.77257975 0.88303238 7.71755384 3.54392318 11 7 C12.4375 9.875 12.4375 9.875 13 12 C7.90789714 8.43679155 3.77339973 4.95258714 0 0 Z " fill="#88409F" transform="translate(266,311)"/>
<path d="M0 0 C0.33 0 0.66 0 1 0 C1 1.98 1 3.96 1 6 C3.31 6.33 5.62 6.66 8 7 C8 7.33 8 7.66 8 8 C7.030625 8.12375 6.06125 8.2475 5.0625 8.375 C4.051875 8.58125 3.04125 8.7875 2 9 C1.67 9.66 1.34 10.32 1 11 C3.64 11.33 6.28 11.66 9 12 C9 12.33 9 12.66 9 13 C2.6 13.49230769 2.6 13.49230769 -0.4375 11 C-0.953125 10.34 -1.46875 9.68 -2 9 C-1.34 9 -0.68 9 0 9 C0 6.03 0 3.06 0 0 Z " fill="#371C3A" transform="translate(255,208)"/>
<path d="M0 0 C0.99 0 1.98 0 3 0 C2.75 2.375 2.75 2.375 2 5 C-1.11609628 7.42363044 -4.17372685 7.17392151 -8 7 C-8 6.34 -8 5.68 -8 5 C-6.865625 4.54625 -5.73125 4.0925 -4.5625 3.625 C-0.95278308 2.42904194 -0.95278308 2.42904194 0 0 Z " fill="#E7E9E8" transform="translate(143,378)"/>
<path d="M0 0 C0.33 0.66 0.66 1.32 1 2 C3.52733235 2.65555119 3.52733235 2.65555119 6 3 C6.33 3.99 6.66 4.98 7 6 C3.82994658 7.58502671 0.50875122 7.60385067 -3 8 C-2.5359375 7.13375 -2.5359375 7.13375 -2.0625 6.25 C-1.07416636 4.15705816 -0.4831387 2.25464725 0 0 Z " fill="#1E1E1A" transform="translate(261,244)"/>
<path d="M0 0 C0 0.99 0 1.98 0 3 C-1.11375 3.309375 -2.2275 3.61875 -3.375 3.9375 C-6.7945155 4.82326483 -6.7945155 4.82326483 -9 6 C-9.66 5.67 -10.32 5.34 -11 5 C-11 3 -11 3 -9.4375 1.375 C-6.19319567 -0.45512039 -3.66275561 -0.21131282 0 0 Z " fill="#1F1E1F" transform="translate(283,207)"/>
<path d="M0 0 C5.78461538 4.43076923 5.78461538 4.43076923 6.875 7.3125 C6.936875 8.1478125 6.936875 8.1478125 7 9 C4.525 10.485 4.525 10.485 2 12 C2.04125 10.88625 2.0825 9.7725 2.125 8.625 C2.41121859 4.95633975 2.41121859 4.95633975 0 3 C0 2.01 0 1.02 0 0 Z " fill="#933FA0" transform="translate(249,316)"/>
<path d="M0 0 C1.32 0.66 2.64 1.32 4 2 C3.34 3.32 2.68 4.64 2 6 C1.34 6 0.68 6 0 6 C0 7.32 0 8.64 0 10 C-0.66 9.67 -1.32 9.34 -2 9 C-1.67 7.68 -1.34 6.36 -1 5 C-2.65 5.33 -4.3 5.66 -6 6 C-6 5.01 -6 4.02 -6 3 C-4.35 3 -2.7 3 -1 3 C-0.67 2.01 -0.34 1.02 0 0 Z " fill="#371B32" transform="translate(243,225)"/>
<path d="M0 0 C1.32 0.66 2.64 1.32 4 2 C3.54625 2.433125 3.0925 2.86625 2.625 3.3125 C0.79975666 5.10798342 0.79975666 5.10798342 -1 8 C-1 7.34 -1 6.68 -1 6 C-1.66 6 -2.32 6 -3 6 C-3 7.98 -3 9.96 -3 12 C-3.33 12 -3.66 12 -4 12 C-4.33292585 7.75519536 -4.43885872 5.64457375 -2 2.0625 C-1.34 1.381875 -0.68 0.70125 0 0 Z " fill="#C8C8C8" transform="translate(310,366)"/>
<path d="M0 0 C2.875 0.6875 2.875 0.6875 5.25 3.6875 C5.78625 4.6775 6.3225 5.6675 6.875 6.6875 C5.885 6.3575 4.895 6.0275 3.875 5.6875 C3.875 5.0275 3.875 4.3675 3.875 3.6875 C-1.09051325 3.33143187 -1.09051325 3.33143187 -5.5625 5.1875 C-6.078125 5.6825 -6.59375 6.1775 -7.125 6.6875 C-7.785 6.3575 -8.445 6.0275 -9.125 5.6875 C-4.10029259 0.90206437 -4.10029259 0.90206437 0 0 Z " fill="#7D3FA3" transform="translate(279.125,210.3125)"/>
<path d="M0 0 C1.0326802 2.78823655 1.04509293 3.8677274 0.0625 6.75 C-0.288125 7.4925 -0.63875 8.235 -1 9 C-2.32 9 -3.64 9 -5 9 C-3.90931332 5.22454612 -3.0916909 2.52956528 0 0 Z " fill="#DDDDDD" transform="translate(247,386)"/>
<path d="M0 0 C4.95258714 3.77339973 8.43679155 7.90789714 12 13 C9.15776803 11.63760782 7.03972359 10.44766831 5 8 C5 7.34 5 6.68 5 6 C2.525 5.01 2.525 5.01 0 4 C0 2.68 0 1.36 0 0 Z " fill="#963F97" transform="translate(229,295)"/>
<path d="M0 0 C3.16115776 1.36983503 3.9927092 1.9890638 6 5 C5.625 7.1875 5.625 7.1875 5 9 C2.5 6.75 2.5 6.75 0 4 C0 2.68 0 1.36 0 0 Z " fill="#E5E5E5" transform="translate(289,372)"/>
<path d="M0 0 C0.99 0.33 1.98 0.66 3 1 C2 4 2 4 -0.4375 5.75 C-1.7059375 6.36875 -1.7059375 6.36875 -3 7 C-3.66 6.67 -4.32 6.34 -5 6 C-3.63016497 2.83884224 -3.0109362 2.0072908 0 0 Z " fill="#DDDDDD" transform="translate(100,356)"/>
<path d="M0 0 C0.66 0.33 1.32 0.66 2 1 C1.5206753 5.31392226 0.2542015 7.16569547 -3 10 C-4.32 9.34 -5.64 8.68 -7 8 C-6.24203125 7.51080078 -6.24203125 7.51080078 -5.46875 7.01171875 C-4.49421875 6.35623047 -4.49421875 6.35623047 -3.5 5.6875 C-2.8503125 5.25824219 -2.200625 4.82898438 -1.53125 4.38671875 C-1.0259375 3.92910156 -0.520625 3.47148437 0 3 C0 2.01 0 1.02 0 0 Z " fill="#3A223D" transform="translate(255,322)"/>
<path d="M0 0 C0 1.98 0 3.96 0 6 C-1.98 6.99 -1.98 6.99 -4 8 C-3.01 5.69 -2.02 3.38 -1 1 C-4.54518884 2.39759905 -4.54518884 2.39759905 -8 4 C-8 2.68 -8 1.36 -8 0 C-4.71023192 -1.09658936 -3.28696233 -0.79953138 0 0 Z " fill="#361D3B" transform="translate(267,251)"/>
<path d="M0 0 C3 0 3 0 5.125 1.8125 C7 4 7 4 8 7 C8.66 7.66 9.32 8.32 10 9 C7 9 7 9 5.17578125 7.5390625 C4.56089844 6.90742188 3.94601562 6.27578125 3.3125 5.625 C2.68988281 4.99851563 2.06726563 4.37203125 1.42578125 3.7265625 C0 2 0 2 0 0 Z " fill="#8843B8" transform="translate(301,157)"/>
<path d="M0 0 C4.13621084 3.3810038 7.81316569 6.66590534 11 11 C6.7273343 10.52525937 4.726198 8.15665032 2 5 C0.6875 2.1875 0.6875 2.1875 0 0 Z " fill="#863F98" transform="translate(262,141)"/>
<path d="M0 0 C7.48291572 6.15034169 7.48291572 6.15034169 10 10 C9.01 10 8.02 10 7 10 C7 9.34 7 8.68 7 8 C6.34 8 5.68 8 5 8 C4 7 3 6 2 5 C1.34 5 0.68 5 0 5 C-0.33 4.01 -0.66 3.02 -1 2 C-0.67 1.34 -0.34 0.68 0 0 Z " fill="#7143CB" transform="translate(358,137)"/>
<path d="M0 0 C-1 3 -1 3 -3 5 C-2.34 5.66 -1.68 6.32 -1 7 C-1.33 7.99 -1.66 8.98 -2 10 C-4.0625 8.25 -4.0625 8.25 -6 6 C-5.9375 3.875 -5.9375 3.875 -5 2 C-2 0 -2 0 0 0 Z " fill="#8940A5" transform="translate(286,131)"/>
<path d="M0 0 C0.99 0.33 1.98 0.66 3 1 C3 1.66 3 2.32 3 3 C3.66 3 4.32 3 5 3 C5 4.32 5 5.64 5 7 C3.125 6.8125 3.125 6.8125 1 6 C-0.25 3.4375 -0.25 3.4375 -1 1 C-0.67 0.67 -0.34 0.34 0 0 Z " fill="#CC3D8E" transform="translate(151,388)"/>
<path d="M0 0 C0.99 0 1.98 0 3 0 C2.34 2.64 1.68 5.28 1 8 C0.01 8 -0.98 8 -2 8 C-2.33 7.34 -2.66 6.68 -3 6 C-2.06553465 3.96855359 -1.06775224 1.96466413 0 0 Z " fill="#D8D8D8" transform="translate(376,365)"/>
<path d="M0 0 C0.33 0.99 0.66 1.98 1 3 C0.01 3.33 -0.98 3.66 -2 4 C-2 7.3 -2 10.6 -2 14 C-4 12 -4 12 -4.375 8.6875 C-3.94805086 4.48916683 -2.88994071 2.98025136 0 0 Z " fill="#401D3C" transform="translate(254,201)"/>
<path d="M0 0 C0.33 0.66 0.66 1.32 1 2 C-0.97764782 6.06516496 -3.7373124 8.91367389 -7 12 C-7.66 11.67 -8.32 11.34 -9 11 C-6.03 7.37 -3.06 3.74 0 0 Z " fill="#B23B83" transform="translate(159,155)"/>
<path d="M0 0 C2.0625 0.4375 2.0625 0.4375 4 1 C2.71034824 2.37562854 1.37310707 3.70766393 0 5 C-0.66 5 -1.32 5 -2 5 C-2 4.34 -2 3.68 -2 3 C-3.98 3 -5.96 3 -8 3 C-8 2.67 -8 2.34 -8 2 C-6.865625 1.855625 -5.73125 1.71125 -4.5625 1.5625 C-1.19222799 1.38828522 -1.19222799 1.38828522 0 0 Z " fill="#C7C7C7" transform="translate(322,380)"/>
<path d="M0 0 C1.65 0 3.3 0 5 0 C5 1.98 5 3.96 5 6 C3.68 6 2.36 6 1 6 C0.67 4.02 0.34 2.04 0 0 Z " fill="#E9E9E9" transform="translate(368,379)"/>
<path d="M0 0 C1.32 0 2.64 0 4 0 C4.6875 1.8125 4.6875 1.8125 5 4 C3.6875 5.75 3.6875 5.75 2 7 C1.34 7 0.68 7 0 7 C-1.125 2.25 -1.125 2.25 0 0 Z " fill="#7C40D8" transform="translate(295,231)"/>
<path d="M0 0 C2.64 0.33 5.28 0.66 8 1 C7.01 1.66 6.02 2.32 5 3 C6.32 3.66 7.64 4.32 9 5 C5.4780279 5.08004482 2.38018531 5.04005702 -1 4 C-0.67 2.68 -0.34 1.36 0 0 Z " fill="#B1B1B1" transform="translate(205,381)"/>
<path d="M0 0 C3 3.625 3 3.625 3 7 C3.66 7 4.32 7 5 7 C5.33 8.32 5.66 9.64 6 11 C5.01 11.33 4.02 11.66 3 12 C2.49166409 10.75336669 1.99368855 9.50250613 1.5 8.25 C1.2215625 7.55390625 0.943125 6.8578125 0.65625 6.140625 C0 4 0 4 0 0 Z " fill="#CC3F89" transform="translate(134,258)"/>
<path d="M0 0 C1.11021994 4.44087977 0.93969188 5.94428062 -1 10 C-2.65 10.66 -4.3 11.32 -6 12 C-4.02 8.04 -2.04 4.08 0 0 Z " fill="#6F3FAE" transform="translate(344,249)"/>
<path d="M0 0 C0.66 0.66 1.32 1.32 2 2 C1 3 1 3 -2.4375 3.1875 C-6 3 -6 3 -8 1 C-5.23749964 -0.38125018 -3.05268901 -0.19079306 0 0 Z " fill="#D5D5D5" transform="translate(214,364)"/>
<path d="M0 0 C0.99 0.33 1.98 0.66 3 1 C0.03 3.64 -2.94 6.28 -6 9 C-6.33 8.01 -6.66 7.02 -7 6 C-6.01 6 -5.02 6 -4 6 C-4 5.34 -4 4.68 -4 4 C-3.34 4 -2.68 4 -2 4 C-1.34 2.68 -0.68 1.36 0 0 Z " fill="#6C42B9" transform="translate(360,318)"/>
<path d="M0 0 C1.32 0 2.64 0 4 0 C4 0.66 4 1.32 4 2 C3.01 2 2.02 2 1 2 C1.33 4.97 1.66 7.94 2 11 C1.34 10.67 0.68 10.34 0 10 C-0.44921875 7.96875 -0.44921875 7.96875 -0.6875 5.5 C-0.77386719 4.6853125 -0.86023438 3.870625 -0.94921875 3.03125 C-0.96597656 2.3609375 -0.98273438 1.690625 -1 1 C-0.67 0.67 -0.34 0.34 0 0 Z " fill="#391E48" transform="translate(284,248)"/>
<path d="M0 0 C3.96 1.32 7.92 2.64 12 4 C12 4.33 12 4.66 12 5 C9.69 5.33 7.38 5.66 5 6 C5 5.01 5 4.02 5 3 C3.35 2.67 1.7 2.34 0 2 C0 1.34 0 0.68 0 0 Z " fill="#331A37" transform="translate(248,185)"/>
<path d="M0 0 C2.64 0 5.28 0 8 0 C7.34 1.32 6.68 2.64 6 4 C3.36 4 0.72 4 -2 4 C-2 3.67 -2 3.34 -2 3 C0.31 3 2.62 3 5 3 C5 2.34 5 1.68 5 1 C3.35 1 1.7 1 0 1 C0 0.67 0 0.34 0 0 Z " fill="#B8B8B8" transform="translate(105,382)"/>
<path d="M0 0 C-4.62197306 2.21854707 -7.76824163 3.38281159 -13 3 C-4.20833333 -1.55864198 -4.20833333 -1.55864198 0 0 Z " fill="#A140A3" transform="translate(246,332)"/>
<path d="M0 0 C-1.32 0.33 -2.64 0.66 -4 1 C-4 1.66 -4 2.32 -4 3 C-2.68 3.33 -1.36 3.66 0 4 C-5.53846154 4.36923077 -5.53846154 4.36923077 -7.875 2.5 C-8.24625 2.005 -8.6175 1.51 -9 1 C-5.8035914 -0.06546953 -3.34252724 -0.07427838 0 0 Z " fill="#B2B2B2" transform="translate(186,382)"/>
<path d="M0 0 C0 0.33 0 0.66 0 1 C-1.423125 1.12375 -1.423125 1.12375 -2.875 1.25 C-6.10461791 1.65074923 -6.10461791 1.65074923 -7.375 4.0625 C-7.58125 4.701875 -7.7875 5.34125 -8 6 C-8.33 5.34 -8.66 4.68 -9 4 C-9.66 3.67 -10.32 3.34 -11 3 C-7.48550811 -0.37391222 -4.73940561 -0.27342725 0 0 Z " fill="#C2C2C2" transform="translate(140,364)"/>
<path d="M0 0 C0.66 0 1.32 0 2 0 C0.68775452 3.93673644 -0.91910327 6.22719294 -4 9 C-3.42415568 6.61435923 -2.77772405 4.33317216 -2 2 C-1.34 2 -0.68 2 0 2 C0 1.34 0 0.68 0 0 Z " fill="#6443C3" transform="translate(388,286)"/>
<path d="M0 0 C0.99 0.66 1.98 1.32 3 2 C2.1875 3.9375 2.1875 3.9375 1 6 C0.01 6.33 -0.98 6.66 -2 7 C-2 5.68 -2 4.36 -2 3 C-1.34 3 -0.68 3 0 3 C0 2.01 0 1.02 0 0 Z " fill="#1D1C21" transform="translate(245,228)"/>
<path d="M0 0 C1.43655854 -0.08131463 2.8744483 -0.13933559 4.3125 -0.1875 C5.51326172 -0.23970703 5.51326172 -0.23970703 6.73828125 -0.29296875 C9.47851584 0.06198392 10.29171079 0.89366282 12 3 C9.2780754 4.3609623 7.8168043 3.70366248 4.875 3.0625 C3.96492187 2.86785156 3.05484375 2.67320312 2.1171875 2.47265625 C1.41851562 2.31667969 0.71984375 2.16070312 0 2 C0 1.34 0 0.68 0 0 Z " fill="#C03E9E" transform="translate(235,221)"/>
<path d="M0 0 C0.103125 0.639375 0.20625 1.27875 0.3125 1.9375 C0.539375 2.618125 0.76625 3.29875 1 4 C1.99 4.33 2.98 4.66 4 5 C4 5.66 4 6.32 4 7 C4.99 7.33 5.98 7.66 7 8 C4.69 7.67 2.38 7.34 0 7 C0 4.69 0 2.38 0 0 Z " fill="#873C8B" transform="translate(256,207)"/>
<path d="M0 0 C0 0.99 0 1.98 0 3 C-2.25 4.75 -2.25 4.75 -5 6 C-6.32 5.67 -7.64 5.34 -9 5 C-6.03 3.35 -3.06 1.7 0 0 Z " fill="#381C44" transform="translate(293,181)"/>
<path d="M0 0 C3.34373475 0.55728913 6.03312999 1.35173889 9 3 C9 3.66 9 4.32 9 5 C5.51694958 4.35499066 2.93797836 2.95865224 0 1 C0 0.67 0 0.34 0 0 Z " fill="#8E4098" transform="translate(243,181)"/>
<path d="M0 0 C5.625 -0.25 5.625 -0.25 9 2 C9 2.66 9 3.32 9 4 C6.03 3.01 3.06 2.02 0 1 C0 0.67 0 0.34 0 0 Z " fill="#8140A5" transform="translate(292,332)"/>
<path d="M0 0 C3.79588866 0.54226981 5.47211993 2.20127563 8 5 C7.01 5.495 7.01 5.495 6 6 C3.97945196 4.35830472 1.97956942 2.69088222 0 1 C0 0.67 0 0.34 0 0 Z " fill="#8740A3" transform="translate(279,323)"/>
<path d="M0 0 C0.33 0.99 0.66 1.98 1 3 C-0.4375 5.1875 -0.4375 5.1875 -2 7 C-3.32 6.67 -4.64 6.34 -6 6 C-4.02 4.02 -2.04 2.04 0 0 Z " fill="#291939" transform="translate(373,308)"/>
<path d="M0 0 C5.75 0.875 5.75 0.875 8 2 C7.67 2.99 7.34 3.98 7 5 C4.11424181 4.60196439 3.17810487 4.20990931 1.25 1.9375 C0.8375 1.298125 0.425 0.65875 0 0 Z " fill="#9241BC" transform="translate(282,274)"/>
<path d="M0 0 C1.32 0 2.64 0 4 0 C4 1.65 4 3.3 4 5 C3.01 5.495 3.01 5.495 2 6 C1.01 4.68 0.02 3.36 -1 2 C-0.67 1.34 -0.34 0.68 0 0 Z " fill="#A33E8E" transform="translate(246,236)"/>
<path d="M0 0 C4.29 0 8.58 0 13 0 C13 0.33 13 0.66 13 1 C12.31292969 1.04898438 11.62585938 1.09796875 10.91796875 1.1484375 C9.56638672 1.26058594 9.56638672 1.26058594 8.1875 1.375 C7.29417969 1.44460937 6.40085937 1.51421875 5.48046875 1.5859375 C2.75601501 1.86645036 2.75601501 1.86645036 0 4 C0 2.68 0 1.36 0 0 Z " fill="#8843AB" transform="translate(271,204)"/>
<path d="M0 0 C1.0625 1.875 1.0625 1.875 2 4 C1.67 4.66 1.34 5.32 1 6 C1.66 6 2.32 6 3 6 C2.67 6.99 2.34 7.98 2 9 C0.35 7.02 -1.3 5.04 -3 3 C-2.01 3 -1.02 3 0 3 C0 2.01 0 1.02 0 0 Z " fill="#7C42BB" transform="translate(328,181)"/>
<path d="M0 0 C0.66 0.33 1.32 0.66 2 1 C-0.25 3.0625 -0.25 3.0625 -3 5 C-5.3125 4.75 -5.3125 4.75 -7 4 C-1.7265625 0.77734375 -1.7265625 0.77734375 0 0 Z " fill="#8140A4" transform="translate(293,126)"/>
<path d="M0 0 C0.1875 2.375 0.1875 2.375 0 5 C-0.99 5.66 -1.98 6.32 -3 7 C-3.6875 5.1875 -3.6875 5.1875 -4 3 C-1.64285714 0 -1.64285714 0 0 0 Z " fill="#6442E4" transform="translate(169,388)"/>
<path d="M0 0 C2.64 0.33 5.28 0.66 8 1 C8 1.66 8 2.32 8 3 C5.69 3 3.38 3 1 3 C0.67 2.01 0.34 1.02 0 0 Z " fill="#F8F8F8" transform="translate(102,382)"/>
<path d="M0 0 C2.31 0 4.62 0 7 0 C5.68 0.33 4.36 0.66 3 1 C3 1.66 3 2.32 3 3 C4.32 3.33 5.64 3.66 7 4 C4.69 3.67 2.38 3.34 0 3 C0 2.01 0 1.02 0 0 Z " fill="#BABABA" transform="translate(132,382)"/>
<path d="M0 0 C1.65 0 3.3 0 5 0 C5.66 2.31 6.32 4.62 7 7 C5.83040013 6.02433888 4.66438823 5.044375 3.5 4.0625 C2.8503125 3.51722656 2.200625 2.97195313 1.53125 2.41015625 C1.0259375 1.94480469 0.520625 1.47945313 0 1 C0 0.67 0 0.34 0 0 Z " fill="#B53E8E" transform="translate(165,310)"/>
<path d="M0 0 C0.33 0.66 0.66 1.32 1 2 C-0.1875 4.5625 -0.1875 4.5625 -2 7 C-3.32 7.33 -4.64 7.66 -6 8 C-4.02 5.36 -2.04 2.72 0 0 Z " fill="#2F1F4A" transform="translate(383,296)"/>
<path d="M0 0 C0.33 0.99 0.66 1.98 1 3 C-0.375 4.5 -0.375 4.5 -2 6 C-2.66 6 -3.32 6 -4 6 C-4 6.66 -4 7.32 -4 8 C-4.66 7.67 -5.32 7.34 -6 7 C-4.02 4.69 -2.04 2.38 0 0 Z " fill="#3D1C37" transform="translate(204,191)"/>
<path d="M0 0 C0.66 0.33 1.32 0.66 2 1 C0.35 2.98 -1.3 4.96 -3 7 C-3.99 6.67 -4.98 6.34 -6 6 C-4.02 4.02 -2.04 2.04 0 0 Z " fill="#472044" transform="translate(216,178)"/>
<path d="M0 0 C0.99 0 1.98 0 3 0 C3.33 1.32 3.66 2.64 4 4 C2.35 4 0.7 4 -1 4 C-0.67 2.68 -0.34 1.36 0 0 Z " fill="#AE3EB2" transform="translate(157,392)"/>
<path d="M0 0 C1.32 0.99 2.64 1.98 4 3 C3.67 3.99 3.34 4.98 3 6 C2.01 6.33 1.02 6.66 0 7 C-0.93423645 3.98968256 -1.04449911 3.13349732 0 0 Z " fill="#D0D0D0" transform="translate(245,377)"/>
<path d="M0 0 C0.99 1.32 1.98 2.64 3 4 C2.01 4.33 1.02 4.66 0 5 C-0.33 5.99 -0.66 6.98 -1 8 C-1.33 6.02 -1.66 4.04 -2 2 C-1.34 2 -0.68 2 0 2 C0 1.34 0 0.68 0 0 Z " fill="#C9C9C9" transform="translate(355,375)"/>
<path d="M0 0 C0.625 1.875 0.625 1.875 1 4 C-1 6 -1 6 -4 7 C-2.92598892 4.08482708 -2.22189824 2.22189824 0 0 Z " fill="#E3E3E3" transform="translate(253,373)"/>
<path d="M0 0 C2.375 0.3125 2.375 0.3125 5 1 C5.66 1.99 6.32 2.98 7 4 C6.67 4.99 6.34 5.98 6 7 C4.02 4.69 2.04 2.38 0 0 Z " fill="#AD3F89" transform="translate(172,317)"/>
<path d="M0 0 C0.33 0.99 0.66 1.98 1 3 C0 5 0 5 -3.0625 6.125 C-4.031875 6.41375 -5.00125 6.7025 -6 7 C-4.02 4.69 -2.04 2.38 0 0 Z " fill="#7A42B4" transform="translate(331,269)"/>
<path d="M0 0 C1.98 0.495 1.98 0.495 4 1 C3.01 1.33 2.02 1.66 1 2 C1.33 3.65 1.66 5.3 2 7 C1.01 6.34 0.02 5.68 -1 5 C-0.67 3.35 -0.34 1.7 0 0 Z " fill="#301B43" transform="translate(288,235)"/>
<path d="M0 0 C1.65 0 3.3 0 5 0 C5.33 1.98 5.66 3.96 6 6 C3.97945196 4.35830472 1.97956942 2.69088222 0 1 C0 0.67 0 0.34 0 0 Z " fill="#7D41B0" transform="translate(313,171)"/>
</svg>
